<svg id="Layer_3" enable-background="new 0 0 64 64" height="512" viewBox="0 0 64 64" width="512" xmlns="http://www.w3.org/2000/svg"><g><path d="m49 2h-34l-8 60h50z" fill="#606060"/><path d="m36 62-1-60h-6l-1 60z" fill="#f2c351"/><path d="m53 62-7-60h3l8 60z" fill="#d5cec2"/><path d="m11 62 7-60h-3l-8 60z" fill="#d5cec2"/><g><path d="m60.999 33h-2v-6c0-.552-.448-1-1-1h-2v-2h2c1.654 0 3 1.346 3 3z" fill="#e7e4dd"/></g><path d="m62 39h-4l1-6h2z" fill="#606060"/><g><path d="m5 33h-2v-6c0-1.654 1.346-3 3-3h2v2h-2c-.552 0-1 .448-1 1z" fill="#e7e4dd"/></g><path d="m2 39h4l-1-6h-2z" fill="#606060"/><g><path d="m31 2h2v17h-2z" fill="#f7d881"/></g><g><path d="m31 31h2v30.999h-2z" fill="#f7d881"/></g><path d="m25.003 2c-.833 0-1.285 0-2.007 0l-.409 4.909 1.993.167z" fill="#f2c351"/><g><path d="m21.097 11.988h3.973v2h-3.973z" fill="#f2c351" transform="matrix(.083 -.997 .997 .083 8.218 34.91)"/></g><g><path d="m18.021 32.672h6.678v2h-6.678z" fill="#f2c351" transform="matrix(.083 -.997 .997 .083 -13.973 52.154)"/></g><g><path d="m18.591 41.958h3.991v2h-3.991z" fill="#f2c351" transform="matrix(.083 -.997 .997 .083 -23.936 59.896)"/></g><g><path d="m17.911 50.016h4.008v2h-4.008z" fill="#f2c351" transform="matrix(.083 -.997 .997 .083 -32.582 66.614)"/></g><path d="m20.003 62 .406-4.876-1.992-.167-.421 5.043z" fill="#f2c351"/><path d="m39.419 7.076 1.993-.167-.409-4.909c-.722 0-1.173 0-2.007 0z" fill="#f2c351"/><g><path d="m39.915 11.002h2v3.973h-2z" fill="#f2c351" transform="matrix(.997 -.083 .083 .997 -.938 3.444)"/></g><g><path d="m41.639 30.333h2v6.678h-2z" fill="#f2c351" transform="matrix(.997 -.083 .083 .997 -2.65 3.658)"/></g><g><path d="m42.413 40.962h2v3.991h-2z" fill="#f2c351" transform="matrix(.997 -.083 .083 .997 -3.418 3.755)"/></g><g><path d="m43.084 49.012h2v4.008h-2z" fill="#f2c351" transform="matrix(.997 -.083 .083 .997 -4.086 3.839)"/></g><path d="m45.583 56.957-1.993.167.406 4.876h2.007z" fill="#f2c351"/><path d="m55 31h-46c-.552 0-1-.448-1-1v-10c0-.552.448-1 1-1h46c.552 0 1 .448 1 1v10c0 .552-.448 1-1 1z" fill="#669e4f"/><g fill="#78b75b"><path d="m12 23h8v4h-8z"/><path d="m44 23h8v4h-8z"/><path d="m28 23h8v4h-8z"/></g><path d="m44 23v4h3.135c1.559-.876 2.767-2.295 3.378-4z" fill="#96cc7f"/><path d="m28 23v4h3.135c1.559-.876 2.767-2.295 3.378-4z" fill="#96cc7f"/><path d="m12 23v4h3.135c1.559-.876 2.767-2.295 3.378-4z" fill="#96cc7f"/><g><path d="m61.986 32.835c-.081-.482-.498-.835-.987-.835v-5c0-1.654-1.346-3-3-3h-1v-4c0-1.103-.897-2-2-2h-2.857l-2.151-16.132c-.067-.497-.491-.868-.992-.868h-33.999c-.501 0-.925.371-.992.868l-2.151 16.132h-2.857c-1.103 0-2 .897-2 2v4h-1c-1.654 0-3 1.346-3 3v5c-.489 0-.906.353-.987.835l-1 6c-.048.29.034.586.224.811s.469.354.763.354h4c.294 0 .573-.129.763-.354.19-.224.272-.521.224-.811l-1-6c-.081-.482-.498-.835-.987-.835v-5c0-.552.448-1 1-1h1v4c0 1.103.897 2 2 2h.991l-3.983 29.868c-.038.286.049.574.239.791.19.216.464.341.753.341h50c.289 0 .562-.125.752-.341.19-.217.277-.505.239-.791l-3.983-29.868h.991c1.103 0 2-.897 2-2v-4h1c.551 0 1 .448 1 1v5c-.489 0-.906.353-.986.835l-1 6c-.048.29.034.586.224.811.189.225.468.354.763.354h4c.294 0 .573-.129.763-.354.19-.224.272-.521.224-.811zm-58.806 5.165.667-4h.306l.667 4zm46.944-20h-1.25l-1.75-15h1zm-25.544-10.924.339-4.076h3.063l-.25 15h-10.592l1.75-15h4.023l-.326 3.909zm5.403-4.076h1.017v15h-1.267zm3.016 0h1.017l.25 15h-1.267zm3.267 15-.25-15h3.064l.34 4.076 1.993-.167-.327-3.909h4.023l1.75 15zm-20.391-15h1.001l-1.75 15h-1.251zm-3.866 29h1.484l-3.383 29h-1.968zm10.07 5.083.424-5.083h4.997l-.484 29h-6.93l.323-3.876-1.993-.167-.337 4.043h-5.956l3.383-29h4.99l-.41 4.917zm19.417-5.083.424 5.083 1.993-.167-.41-4.916h4.99l3.383 29h-5.956l-.337-4.043-1.993.167.323 3.876h-6.93l-.483-29zm-6.997 0 .483 29h-1.984v-29zm-3.499 29h-1.984l.484-29h1.5zm24.857 0h-1.967l-3.383-29h1.484zm-46.857-31v-10h46v10zm50.18 8 .667-4h.306l.667 4z"/><path d="m21.097 11.988h3.973v2h-3.973z" transform="matrix(.083 -.997 .997 .083 8.218 34.91)"/><path d="m18.591 41.958h3.991v2h-3.991z" transform="matrix(.083 -.997 .997 .083 -23.936 59.896)"/><path d="m17.911 50.016h4.008v2h-4.008z" transform="matrix(.083 -.997 .997 .083 -32.582 66.614)"/><path d="m39.915 11.002h2v3.973h-2z" transform="matrix(.997 -.083 .083 .997 -.939 3.452)"/><path d="m42.413 40.962h2v3.991h-2z" transform="matrix(.997 -.083 .083 .997 -3.418 3.755)"/><path d="m43.084 49.012h2v4.008h-2z" transform="matrix(.997 -.083 .083 .997 -4.095 3.848)"/><path d="m20 22h-8c-.553 0-1 .447-1 1v4c0 .553.447 1 1 1h8c.553 0 1-.447 1-1v-4c0-.553-.448-1-1-1zm-1 4h-6v-2h6z"/><path d="m52 22h-8c-.553 0-1 .447-1 1v4c0 .553.447 1 1 1h8c.553 0 1-.447 1-1v-4c0-.553-.448-1-1-1zm-1 4h-6v-2h6z"/><path d="m36 22h-8c-.553 0-1 .447-1 1v4c0 .553.447 1 1 1h8c.553 0 1-.447 1-1v-4c0-.553-.448-1-1-1zm-1 4h-6v-2h6z"/></g></g></svg>