<svg height="512" viewBox="0 0 74 74" width="512" xmlns="http://www.w3.org/2000/svg"><g id="color_line" data-name="color line"><path d="m61.709 42.211h-51.418l5.247-20.391a4.333 4.333 0 0 1 4.156-3.12h32.612a4.333 4.333 0 0 1 4.156 3.12z" fill="#fe7058"/><path d="m66.721 50.15v10.728a3.315 3.315 0 0 1 -3.314 3.314h-54.814a3.315 3.315 0 0 1 -3.314-3.314v-10.728a8.605 8.605 0 0 1 5.012-7.939h51.418a8.605 8.605 0 0 1 5.012 7.939z" fill="#fe7058"/><path d="m61.71 42.21h-3.17l-4.59-17.81a4.335 4.335 0 0 0 -4.15-3.12h-32.62a4.052 4.052 0 0 0 -1.56.3 4.315 4.315 0 0 1 4.07-2.88h32.62a4.326 4.326 0 0 1 4.15 3.12z" fill="#ea6453"/><path d="m66.72 50.15v10.73a3.314 3.314 0 0 1 -3.31 3.31h-54.82a3.3 3.3 0 0 1 -3.3-3.21h54.7a3.307 3.307 0 0 0 3.31-3.31v-10.73a8.591 8.591 0 0 0 -1.21-4.54 8.575 8.575 0 0 1 4.63 7.75z" fill="#ea6453"/><path d="m62.09 42.4a8.591 8.591 0 0 1 1.21 4.54v10.73a3.307 3.307 0 0 1 -3.31 3.31h-13.532v3.21h16.952a3.314 3.314 0 0 0 3.31-3.31v-10.73a8.575 8.575 0 0 0 -4.63-7.75z" fill="#ea6453"/><path d="m25.5 60.98h-20.21a3.3 3.3 0 0 0 3.3 3.21h16.91z" fill="#ea6453"/><path d="m62.192 64.192v5.72a1.968 1.968 0 0 1 -1.961 1.961h-6.544a1.956 1.956 0 0 1 -1.947-1.961v-5.72z" fill="#707583"/><path d="m60.231 72.372h-6.544a2.457 2.457 0 0 1 -2.446-2.461v-5.719a.5.5 0 0 1 .5-.5h10.451a.5.5 0 0 1 .5.5v5.719a2.463 2.463 0 0 1 -2.461 2.461zm-7.991-7.68v5.219a1.455 1.455 0 0 0 1.446 1.461h6.545a1.462 1.462 0 0 0 1.461-1.461v-5.219z" fill="#323c6b"/><path d="m9.808 64.192h10.452v5.72a1.956 1.956 0 0 1 -1.947 1.961h-6.545a1.968 1.968 0 0 1 -1.961-1.961z" fill="#707583"/><path d="m18.313 72.372h-6.544a2.463 2.463 0 0 1 -2.461-2.461v-5.719a.5.5 0 0 1 .5-.5h10.452a.5.5 0 0 1 .5.5v5.719a2.457 2.457 0 0 1 -2.447 2.461zm-8.006-7.68v5.219a1.462 1.462 0 0 0 1.461 1.461h6.545a1.455 1.455 0 0 0 1.446-1.461v-5.219z" fill="#323c6b"/><ellipse cx="56.065" cy="53.008" fill="#fcd462" rx="4.534" ry="4.526"/><path d="m44.5 56.053a2.426 2.426 0 0 0 -2.321-1.718h-12.361a2.426 2.426 0 0 0 -2.318 1.718l-2.486 8.139h21.974z" fill="#bbbbcd"/><path d="m39.84 58.119h-7.68a.5.5 0 0 1 0-1h7.68a.5.5 0 0 1 0 1z" fill="#323c6b"/><ellipse cx="15.928" cy="53.008" fill="#fcd462" rx="4.534" ry="4.526"/><path d="m60.6 53.01a4.5 4.5 0 0 1 -1.57 3.42 4.436 4.436 0 0 0 .26-1.51 4.532 4.532 0 0 0 -4.54-4.52 4.486 4.486 0 0 0 -2.96 1.1 4.535 4.535 0 0 1 8.81 1.51z" fill="#f7be56"/><path d="m20.47 53.01a4.478 4.478 0 0 1 -1.59 3.43 4.228 4.228 0 0 0 .27-1.52 4.539 4.539 0 0 0 -7.49-3.43 4.537 4.537 0 0 1 8.81 1.52z" fill="#f7be56"/><path d="m8.472 37.076h-4.66a1.812 1.812 0 0 0 -1.812 1.812v1.512a1.812 1.812 0 0 0 1.812 1.812h6.472v-3.324a1.812 1.812 0 0 0 -1.812-1.812z" fill="#fe7058"/><path d="m10.284 42.711h-6.471a2.315 2.315 0 0 1 -2.313-2.311v-1.51a2.315 2.315 0 0 1 2.313-2.312h4.659a2.315 2.315 0 0 1 2.313 2.313v3.322a.5.5 0 0 1 -.501.498zm-6.471-5.135a1.314 1.314 0 0 0 -1.313 1.313v1.511a1.314 1.314 0 0 0 1.313 1.313h5.971v-2.824a1.314 1.314 0 0 0 -1.312-1.312z" fill="#323c6b"/><path d="m63.528 37.076h4.66a1.812 1.812 0 0 1 1.812 1.812v1.512a1.812 1.812 0 0 1 -1.812 1.812h-6.472v-3.324a1.812 1.812 0 0 1 1.812-1.812z" fill="#fe7058"/><g fill="#323c6b"><path d="m68.188 42.711h-6.472a.5.5 0 0 1 -.5-.5v-3.322a2.315 2.315 0 0 1 2.313-2.312h4.659a2.315 2.315 0 0 1 2.312 2.312v1.511a2.315 2.315 0 0 1 -2.312 2.311zm-5.972-1h5.972a1.314 1.314 0 0 0 1.312-1.311v-1.51a1.314 1.314 0 0 0 -1.312-1.312h-4.66a1.314 1.314 0 0 0 -1.312 1.313z"/><path d="m12.653 21.5a.5.5 0 0 1 -.48-.64 7.917 7.917 0 0 1 6.11-5.519.5.5 0 0 1 .184.983 6.906 6.906 0 0 0 -5.333 4.815.5.5 0 0 1 -.481.361z"/><path d="m21.938 16.2h-.812a.5.5 0 0 1 0-1h.813a.5.5 0 0 1 0 1z"/><path d="m46.333 67.692h-9.458a.5.5 0 0 1 0-1h9.458a.5.5 0 0 1 0 1z"/><path d="m34.094 67.692h-.719a.5.5 0 0 1 0-1h.719a.5.5 0 0 1 0 1z"/><path d="m44.541 6.43a.5.5 0 0 1 -.366-.159 11.294 11.294 0 0 0 -15.944-.571.5.5 0 1 1 -.682-.731 12.3 12.3 0 0 1 17.357.618.5.5 0 0 1 -.366.841z"/><path d="m41.276 9.47a.5.5 0 0 1 -.366-.159 6.828 6.828 0 0 0 -9.638-.343.5.5 0 1 1 -.682-.731 7.828 7.828 0 0 1 11.052.393.5.5 0 0 1 -.366.841z"/><path d="m36 18.913a.5.5 0 0 1 -.5-.5v-3.5a.5.5 0 0 1 1 0v3.5a.5.5 0 0 1 -.5.5z"/></g><circle cx="36.007" cy="12.687" fill="#eeefee" r="2.229" transform="matrix(.707 -.707 .707 .707 1.575 29.177)"/><path d="m36.007 15.417a2.729 2.729 0 0 1 -1.93-4.659 2.793 2.793 0 0 1 3.859 0 2.729 2.729 0 0 1 -1.93 4.659zm-1.223-3.952a1.732 1.732 0 0 0 0 2.445 1.77 1.77 0 0 0 2.445 0 1.728 1.728 0 0 0 0-2.445 1.77 1.77 0 0 0 -2.445 0z" fill="#323c6b"/><path d="m15.592 38.211 3.793-15.293a.325.325 0 0 1 .309-.218h32.613a.33.33 0 0 1 .314.237l3.787 15.274z" fill="#89c5cd"/><path d="m56.408 38.71h-40.816a.5.5 0 0 1 -.485-.62l3.793-15.29a.824.824 0 0 1 .794-.6h32.613a.833.833 0 0 1 .794.6l3.793 15.29a.5.5 0 0 1 -.485.62zm-40.178-1h39.54l-3.599-14.51h-32.341z" fill="#323c6b"/><path d="m61.709 42.711h-51.418a.5.5 0 0 1 -.484-.625l5.247-20.386a4.858 4.858 0 0 1 4.64-3.5h32.613a4.854 4.854 0 0 1 4.636 3.481l5.251 20.406a.5.5 0 0 1 -.484.625zm-50.773-1h50.128l-5.086-19.767a3.844 3.844 0 0 0 -3.671-2.744h-32.614a3.847 3.847 0 0 0 -3.675 2.76z" fill="#323c6b"/><path d="m45.792 60.98h-19.709l-1.071 3.212 21.976-.002z" fill="#9297ab"/><path d="m46.988 64.692h-21.976a.5.5 0 0 1 -.479-.646l2.486-8.139a2.911 2.911 0 0 1 2.8-2.072h12.363a2.911 2.911 0 0 1 2.8 2.072l2.486 8.139a.5.5 0 0 1 -.479.646zm-21.3-1h20.625l-2.29-7.492a1.915 1.915 0 0 0 -1.842-1.364h-12.363a1.915 1.915 0 0 0 -1.841 1.364z" fill="#323c6b"/><path d="m41.976 61.405h-11.952a.5.5 0 1 1 0-1h11.952a.5.5 0 0 1 0 1z" fill="#323c6b"/><path d="m56.062 58.034a5.026 5.026 0 1 1 5.038-5.026 5.032 5.032 0 0 1 -5.038 5.026zm0-9.053a4.026 4.026 0 1 0 4.038 4.027 4.031 4.031 0 0 0 -4.038-4.027z" fill="#323c6b"/><path d="m15.924 58.034a5.026 5.026 0 1 1 5.041-5.026 5.032 5.032 0 0 1 -5.041 5.026zm0-9.053a4.026 4.026 0 1 0 4.041 4.026 4.031 4.031 0 0 0 -4.041-4.026z" fill="#323c6b"/><path d="m63.407 64.692h-54.814a3.818 3.818 0 0 1 -3.813-3.814v-10.728a9.188 9.188 0 0 1 5.325-8.4.5.5 0 0 1 .187-.036h51.417a.5.5 0 0 1 .187.036 9.188 9.188 0 0 1 5.325 8.4v10.728a3.818 3.818 0 0 1 -3.814 3.814zm-53.013-21.981a8.041 8.041 0 0 0 -4.615 7.439v10.728a2.817 2.817 0 0 0 2.813 2.814h54.815a2.817 2.817 0 0 0 2.813-2.814v-10.728a8.137 8.137 0 0 0 -4.62-7.439z" fill="#323c6b"/><path d="m29.587 45.78-8.608.011a.719.719 0 1 1 0-1.438l8.619-.011a.692.692 0 0 1 .465.177.721.721 0 0 1 -.476 1.261z" fill="#fff"/><path d="m32.169 44.353h.282a.659.659 0 0 1 .476.188.68.68 0 0 1 .243.542.715.715 0 0 1 -.719.708h-.282a.719.719 0 0 1 0-1.438z" fill="#fff"/></g></svg>