<?xml version="1.0"?>
<svg xmlns="http://www.w3.org/2000/svg" xmlns:xlink="http://www.w3.org/1999/xlink" xmlns:svgjs="http://svgjs.com/svgjs" version="1.1" width="512" height="512" x="0" y="0" viewBox="0 0 442.596 442.596" style="enable-background:new 0 0 512 512" xml:space="preserve" class=""><g>
<g xmlns="http://www.w3.org/2000/svg">
	<g>
		<path style="" d="M383.478,374.886v44.76c0,12.675-10.275,22.95-22.95,22.95h0h-19.12    c-12.675,0-22.95-10.275-22.95-22.95v0v-21.81h42.07c12.672,0.003,22.947-10.266,22.95-22.938    C383.478,374.894,383.478,374.89,383.478,374.886z" fill="#d4e1f4" data-original="#d4e1f4" class=""/>
		<path style="" d="M383.478,369.156v5.73c0.003,12.672-10.266,22.947-22.938,22.95c-0.004,0-0.008,0-0.012,0H82.068    c-12.672,0.003-22.947-10.266-22.95-22.938c0-0.004,0-0.008,0-0.012v-57.12c-0.002-10.11,4.441-19.709,12.15-26.25l13.09-11.11    h278.47v0.39l9.87,9.32c6.881,6.502,10.781,15.552,10.78,25.02V369.156z" fill="#0068b4" data-original="#00efd1" class=""/>
		<g>
			<path style="" d="M338.328,220.676l25.65,59.73h-34.05c0-23.447-19.008-42.455-42.455-42.455     c-23.447,0-42.455,19.008-42.455,42.455l0,0H83.208l25.65-59.73c3.704-8.621,12.186-14.209,21.57-14.21h186.33     C326.141,206.467,334.623,212.054,338.328,220.676z" fill="#d4e1f4" data-original="#d4e1f4" class=""/>
			<path style="" d="M329.928,280.406h-84.91c0-23.447,19.008-42.455,42.455-42.455     C310.92,237.951,329.928,256.959,329.928,280.406L329.928,280.406z" fill="#d4e1f4" data-original="#d4e1f4" class=""/>
		</g>
		<circle style="" cx="221.298" cy="128.286" r="25.82" fill="#0b3172" data-original="#00acea" class=""/>
		<path style="" d="M124.138,398.226v21.42c0,12.675-10.275,22.95-22.95,22.95c0,0,0,0,0,0h-19.12    c-12.675,0-22.95-10.275-22.95-22.95c0,0,0,0,0,0v-44.76c-0.003,12.672,10.266,22.947,22.938,22.95c0.004,0,0.008,0,0.012,0h42.07    V398.226z" fill="#d4e1f4" data-original="#d4e1f4" class=""/>
	</g>
	<g>
		<path style="" d="M339.928,280.406h-20c-0.001-17.924-14.533-32.454-32.457-32.453    c-17.923,0.001-32.452,14.53-32.453,32.453h-20c0-28.97,23.485-52.455,52.455-52.455    C316.443,227.951,339.928,251.436,339.928,280.406z" fill="#0b3172" data-original="#00acea" class=""/>
		<path style="" d="M256.298,369.716h-70c-5.523,0-10-4.477-10-10s4.477-10,10-10h70c5.523,0,10,4.477,10,10    S261.821,369.716,256.298,369.716z" fill="#0b3172" data-original="#00acea" class=""/>
		<path style="" d="M256.298,341.666h-70c-5.523,0-10-4.477-10-10s4.477-10,10-10h70c5.523,0,10,4.477,10,10    S261.821,341.666,256.298,341.666z" fill="#0b3172" data-original="#00acea" class=""/>
		<path style="" d="M282.518,93.366c-2.653,0.003-5.198-1.051-7.072-2.929c-29.925-29.861-78.375-29.861-108.3,0    c-3.905,3.905-10.238,3.905-14.143,0c-3.905-3.905-3.905-10.238,0-14.143c37.742-37.654,98.84-37.654,136.582,0    c3.906,3.905,3.907,10.236,0.002,14.142c-1.876,1.876-4.42,2.93-7.073,2.93H282.518z" fill="#0b3172" data-original="#00acea" class=""/>
		<path style="" d="M323.338,62.186c-2.653,0.004-5.197-1.051-7.07-2.929c-52.37-52.351-137.57-52.351-189.94,0    c-3.856,3.954-10.187,4.034-14.141,0.178c-3.954-3.856-4.034-10.187-0.178-14.141c0.059-0.061,0.119-0.12,0.179-0.179    c60.164-60.153,158.056-60.153,218.22,0c3.905,3.905,3.905,10.237,0,14.142C328.533,61.132,325.99,62.185,323.338,62.186    L323.338,62.186z" fill="#0b3172" data-original="#00acea" class=""/>
	</g>
</g>
<g xmlns="http://www.w3.org/2000/svg">
	<rect x="295.118" y="324.016" style="" width="54.7" height="37.49" fill="#d4e1f4" data-original="#d4e1f4" class=""/>
</g>
<g xmlns="http://www.w3.org/2000/svg">
	<rect x="92.778" y="324.016" style="" width="54.7" height="37.49" fill="#d4e1f4" data-original="#d4e1f4" class=""/>
</g>
<g xmlns="http://www.w3.org/2000/svg">
</g>
<g xmlns="http://www.w3.org/2000/svg">
</g>
<g xmlns="http://www.w3.org/2000/svg">
</g>
<g xmlns="http://www.w3.org/2000/svg">
</g>
<g xmlns="http://www.w3.org/2000/svg">
</g>
<g xmlns="http://www.w3.org/2000/svg">
</g>
<g xmlns="http://www.w3.org/2000/svg">
</g>
<g xmlns="http://www.w3.org/2000/svg">
</g>
<g xmlns="http://www.w3.org/2000/svg">
</g>
<g xmlns="http://www.w3.org/2000/svg">
</g>
<g xmlns="http://www.w3.org/2000/svg">
</g>
<g xmlns="http://www.w3.org/2000/svg">
</g>
<g xmlns="http://www.w3.org/2000/svg">
</g>
<g xmlns="http://www.w3.org/2000/svg">
</g>
<g xmlns="http://www.w3.org/2000/svg">
</g>
</g></svg>
