<svg height="512" viewBox="0 0 512 512" width="512" xmlns="http://www.w3.org/2000/svg"><g id="Fill_out_line" data-name="Fill out line"><rect fill="#8acce7" height="304" rx="32" width="464" x="24" y="56"/><path d="m488 312v16a32.00409 32.00409 0 0 1 -32 32h-400a32.00409 32.00409 0 0 1 -32-32v-16z" fill="#396795"/><path d="m328 424-9.37261-9.37261a77.25476 77.25476 0 0 1 -22.62739-54.62739h-80a77.25476 77.25476 0 0 1 -22.62739 54.62736l-9.37261 9.37264z" fill="#26507a"/><rect fill="#396795" height="32" rx="16" width="240" x="136" y="424"/><rect fill="#395166" height="144" rx="16" width="192" x="296" y="312"/><path d="m352 440 24 16h96a16 16 0 0 0 16-16 16 16 0 0 0 -16-16h-96z" fill="#8acce7"/><circle cx="256" cy="184" fill="#eedc9a" r="88"/><path d="m224 136v96l88-48z" fill="#e44b4d"/><path d="m256 88a96 96 0 1 0 96 96 96.10874 96.10874 0 0 0 -96-96zm0 176a80 80 0 1 1 80-80 80.09041 80.09041 0 0 1 -80 80z"/><path d="m219.916 129.12061a8.00031 8.00031 0 0 0 -3.916 6.87939v96a7.99987 7.99987 0 0 0 11.83105 7.023l88-48a7.99985 7.99985 0 0 0 0-14.0459l-88-48a8.00313 8.00313 0 0 0 -7.91505.14351zm12.084 20.35595 63.293 34.52344-63.293 34.52344z"/><path d="m64 88h32v16h-32z"/><path d="m112 88h32v16h-32z"/><path d="m48 112h32v16h-32z"/><path d="m96 112h48v16h-48z"/><path d="m48 136h64v16h-64z"/><path d="m384 224h32v16h-32z"/><path d="m432 224h32v16h-32z"/><path d="m368 248h32v16h-32z"/><path d="m416 248h48v16h-48z"/><path d="m368 272h64v16h-64z"/><circle cx="256" cy="336" r="8"/><path d="m456 48h-400a40.04022 40.04022 0 0 0 -40 40v240a40.04018 40.04018 0 0 0 40 40h151.54a68.66293 68.66293 0 0 1 -19.82 40.97l-7.04 7.03h-28.68a24 24 0 0 0 0 48h320a24.03189 24.03189 0 0 0 24-24v-352a40.04022 40.04022 0 0 0 -40-40zm-424 40a24.03185 24.03185 0 0 1 24-24h400a24.03185 24.03185 0 0 1 24 24v217.38a23.59388 23.59388 0 0 0 -8-1.38h-440zm24 264a24.03189 24.03189 0 0 1 -24-24v-8h257.37988a23.59674 23.59674 0 0 0 -1.37988 8v24zm167.62988 16h64.37012v48h-84.98a84.4479 84.4479 0 0 0 20.60988-48zm-71.62988 80a8 8 0 0 1 0-16h136v8a23.59674 23.59674 0 0 0 1.37988 8zm240 0h-13.58008l-12-8 12-8h13.58008zm80 0h-64v-16h64a8 8 0 0 1 0 16zm0-32h-96a8.06543 8.06543 0 0 0 -4.43994 1.34l-24 16a8.00959 8.00959 0 0 0 0 13.31994l2.01 1.34009h-37.57006a8.01074 8.01074 0 0 1 -8-8v-112.00003a8.01066 8.01066 0 0 1 8-8h160a8.01066 8.01066 0 0 1 8 8v89.38a23.59388 23.59388 0 0 0 -8-1.38z"/><circle cx="328" cy="336" r="8"/><circle cx="464" cy="336" r="8"/><path d="m312 352h160v16h-160z"/><path d="m312 384v16h16v-8h8v-16h-16a8.00008 8.00008 0 0 0 -8 8z"/><path d="m328 416h-16v16a8.00008 8.00008 0 0 0 8 8h16v-16h-8z"/><path d="m464 376h-16v16h8v8h16v-16a8.00008 8.00008 0 0 0 -8-8z"/></g></svg>