<svg xmlns="http://www.w3.org/2000/svg" width="177.944" height="232.93" viewBox="0 0 177.944 232.93"><defs><style>.a{fill:#edf4fc;}.b{fill:#eb5c40;}.c{fill:#f5c84c;}.d{fill:#fcdd86;}.e{fill:#5290db;}.f{fill:#0b3172;}</style></defs><g transform="translate(-39.029 -23.07)"><path class="a" d="M182.353,25.571H103.535l-39.58,39.58v42.96H80.966a10.867,10.867,0,0,1,10.09,6.832L97.8,137.7a10.867,10.867,0,0,0,10.09,6.832h84.154V35.264A9.718,9.718,0,0,0,182.353,25.571Z"/><path class="b" d="M63.956,65.151H93.845a9.72,9.72,0,0,0,9.691-9.691V25.571Z"/><path class="c" d="M203.6,124.53h-11.56v20H203.6A10.868,10.868,0,0,1,214.472,155.4v-20A10.868,10.868,0,0,0,203.6,124.53Z"/><path class="d" d="M203.6,144.53H107.89A10.866,10.866,0,0,1,97.8,137.7l-6.743-22.757a10.866,10.866,0,0,0-10.09-6.831H52.4a10.868,10.868,0,0,0-10.868,10.868V242.633A10.868,10.868,0,0,0,52.4,253.5H203.605a10.868,10.868,0,0,0,10.868-10.868V155.4A10.87,10.87,0,0,0,203.6,144.53Z"/><path class="a" d="M117.263,189.5v-8.263a10.737,10.737,0,0,1,21.474,0V189.5h10v-8.263a20.737,20.737,0,1,0-41.474,0V189.5Z"/><path class="e" d="M148.932,238.517H107.068a7.66,7.66,0,0,1-7.638-7.638V197.137a7.66,7.66,0,0,1,7.638-7.638h41.864a7.66,7.66,0,0,1,7.638,7.638v33.742A7.66,7.66,0,0,1,148.932,238.517Z"/><path class="f" d="M127.8,202.986a7.218,7.218,0,0,0-6.936,7,7.107,7.107,0,0,0,2.312,5.385,2.1,2.1,0,0,1,.689,1.543v3.011a2.09,2.09,0,0,0,2.09,2.09h4.093a2.09,2.09,0,0,0,2.09-2.09v-3.011a2.1,2.1,0,0,1,.691-1.546,7.132,7.132,0,0,0-5.029-12.384Z"/><path d="M192.044,146a2.5,2.5,0,0,1-2.5-2.5V35.262a7.2,7.2,0,0,0-7.191-7.191H104.571L66.456,66.186v41.471a2.5,2.5,0,0,1-5,0V65.15a2.5,2.5,0,0,1,.732-1.768l39.58-39.58a2.5,2.5,0,0,1,1.768-.732h78.817a12.2,12.2,0,0,1,12.191,12.191V143.5a2.5,2.5,0,0,1-2.5,2.5Z"/><path d="M172.632,67.364H113.125a2.5,2.5,0,0,1,0-5h59.507a2.5,2.5,0,0,1,0,5Z"/><path d="M172.632,80H83.368a2.5,2.5,0,0,1,0-5h89.264a2.5,2.5,0,0,1,0,5Z"/><path d="M172.632,54.726H113.125a2.5,2.5,0,0,1,0-5h59.507a2.5,2.5,0,0,1,0,5Z"/><path d="M172.632,92.642H83.368a2.5,2.5,0,0,1,0-5h89.264a2.5,2.5,0,0,1,0,5Z"/><path d="M172.632,105.28H98.747a2.5,2.5,0,0,1,0-5h73.885a2.5,2.5,0,0,1,0,5Z"/><path d="M172.632,117.919H101.667a2.5,2.5,0,1,1,0-5h70.965a2.5,2.5,0,0,1,0,5Z"/><path d="M172.632,130.558H105.5a2.5,2.5,0,1,1,0-5h67.131a2.5,2.5,0,0,1,0,5Z"/><path d="M93.845,67.65H64.855a2.5,2.5,0,0,1,0-5h28.99a7.2,7.2,0,0,0,7.191-7.191v-29.3a2.5,2.5,0,0,1,5,0v29.3A12.2,12.2,0,0,1,93.845,67.65Z"/><path d="M214.472,157.9a2.5,2.5,0,0,1-2.5-2.5v-20a8.377,8.377,0,0,0-8.367-8.368H193a2.5,2.5,0,0,1,0-5h10.6A13.382,13.382,0,0,1,216.971,135.4v20a2.5,2.5,0,0,1-2.5,2.5Z"/><path d="M203.6,256H52.4a13.382,13.382,0,0,1-13.367-13.367V118.978A13.382,13.382,0,0,1,52.4,105.611H80.967a13.3,13.3,0,0,1,12.412,8.4c.028.072.054.145.076.219l6.708,22.64a8.326,8.326,0,0,0,7.729,5.159h95.714A13.382,13.382,0,0,1,216.973,155.4v87.235A13.384,13.384,0,0,1,203.6,256ZM52.4,110.61a8.377,8.377,0,0,0-8.367,8.367V242.632A8.377,8.377,0,0,0,52.4,251H203.605a8.377,8.377,0,0,0,8.367-8.367V155.4a8.377,8.377,0,0,0-8.367-8.367H107.89a13.3,13.3,0,0,1-12.412-8.4c-.028-.072-.054-.145-.076-.219l-6.708-22.64a8.326,8.326,0,0,0-7.728-5.159Z"/><path d="M138.737,191.375a2.5,2.5,0,0,1-2.5-2.5v-7.638a8.237,8.237,0,1,0-16.474,0v7.576a2.5,2.5,0,1,1-5,0v-7.576a13.237,13.237,0,0,1,26.474,0v7.638A2.5,2.5,0,0,1,138.737,191.375Z"/><path d="M107.263,191.375a2.5,2.5,0,0,1-2.5-2.5v-7.638a23.237,23.237,0,1,1,46.474,0v7.576a2.5,2.5,0,1,1-5,0v-7.576a18.237,18.237,0,1,0-36.474,0v7.638A2.5,2.5,0,0,1,107.263,191.375Z"/><path d="M148.932,241.018H107.068A10.15,10.15,0,0,1,96.93,230.88V197.138A10.15,10.15,0,0,1,107.068,187h41.864a10.15,10.15,0,0,1,10.138,10.138V230.88A10.15,10.15,0,0,1,148.932,241.018ZM107.068,192a5.144,5.144,0,0,0-5.138,5.138V230.88a5.144,5.144,0,0,0,5.138,5.138h41.864a5.144,5.144,0,0,0,5.138-5.138V197.138A5.144,5.144,0,0,0,148.932,192Z"/><path d="M130.046,224.518h-4.093a4.6,4.6,0,0,1-4.59-4.591V217.1a9.637,9.637,0,1,1,13.272,0v2.825a4.593,4.593,0,0,1-4.589,4.591Zm-3.683-5h3.273v-2.6a4.621,4.621,0,0,1,1.5-3.388,4.629,4.629,0,0,0,.1-6.732,4.672,4.672,0,0,0-3.367-1.312,4.742,4.742,0,0,0-4.5,4.55,4.643,4.643,0,0,0,1.5,3.5,4.61,4.61,0,0,1,1.5,3.384v2.6Zm-4.879-2.3h.01Z"/></g></svg>