<svg id="Layer_1" enable-background="new 0 0 256 256" height="512" viewBox="0 0 256 256" width="512" xmlns="http://www.w3.org/2000/svg"><g id="Layer_24"><g><path d="m233.5 36.8h-211c-6.6 0-12 5.4-12 12v140 .9c.6 6.1 5.8 10.7 11.9 10.6h211.2c6.1.1 11.3-4.5 11.9-10.6 0-.3 0-.6 0-.9v-140c0-6.7-5.4-12-12-12z" fill="#3a70bf"/><path d="m233.6 190.2c.9.1 1.7-.5 1.9-1.4v-.1-140c0-1.1-.9-2-2-2h-211c-1.1 0-2 .9-2 2v140 .2c.2.8 1 1.4 1.9 1.3z" fill="#3caadc"/><path d="m233.5 46.8h-211c-1.1 0-2 .9-2 2v8.5h215v-8.5c0-1.1-.9-2-2-2z" fill="#edf4fc"/><g fill="#9be5f9"><path d="m36 46.8h-13.5c-1.1 0-2 .9-2 2v8.5h15.5z"/><path d="m184.2 105.1c-1.4 0-2.5-1.1-2.5-2.5 0-.7.3-1.3.8-1.8l12.2-11.8c.5-.5 1.1-.7 1.7-.7h14.4c1.4 0 2.5 1.1 2.5 2.5s-1.1 2.5-2.5 2.5h-13.4l-11.5 11.1c-.4.4-1.1.7-1.7.7z"/><path d="m211.3 158.8h-13.4l-4.8-4.7c-.5.4-.9 1-1.2 1.6-.4 1-.9 1.9-1.4 2.9l4.7 4.5c.5.5 1.1.7 1.7.7h14.4c1.4 0 2.5-1.1 2.5-2.5s-1.1-2.5-2.5-2.5z"/><path d="m210.3 123.5h-26.6c-.2 0-.3 0-.5.1 2.2 1.3 4 2.9 5.5 4.9h21.6c1.4 0 2.5-1.1 2.5-2.5s-1.1-2.5-2.5-2.5z"/><path d="m71.8 105.1c1.4 0 2.5-1.1 2.5-2.5 0-.7-.3-1.3-.8-1.8l-12.2-11.9c-.5-.5-1.1-.7-1.7-.7h-14.4c-1.4 0-2.5 1.1-2.5 2.5s1.1 2.5 2.5 2.5h13.4l11.5 11.1c.4.5 1.1.8 1.7.8z"/><path d="m44.7 163.8h14.4c.6 0 1.3-.3 1.7-.7l12.2-11.8c1-1 1-2.5.1-3.5-1-1-2.5-1-3.5-.1l-11.5 11.1h-13.4c-1.4 0-2.5 1.1-2.5 2.5s1.1 2.5 2.5 2.5z"/><path d="m45.7 128.5h26.6c1.4 0 2.5-1.1 2.5-2.5s-1.1-2.5-2.5-2.5h-26.6c-1.4 0-2.5 1.1-2.5 2.5s1.1 2.5 2.5 2.5z"/></g><path d="m248.6 200.2h-241.2c-2.7 0-4.9 2.2-4.9 4.9 0 7.8 6.3 14.1 14.1 14.1h222.8c7.8 0 14.1-6.3 14.1-14.1 0-2.7-2.2-4.8-4.9-4.9z" fill="#edf4fc"/><path d="m84 200.2v1.7c0 3.7 3 6.8 6.8 6.8h75.4c3.7 0 6.8-3 6.8-6.8v-1.7z" fill="#c7d7e5"/><path d="m66.6 21.9c-4-.7-7.1-3.8-7.9-7.7 0-.1-.1-.2-.2-.1-.1 0-.1.1-.1.1-.8 4-3.9 7-7.9 7.7-.1 0-.2.1-.1.2 0 .1.1.1.1.1 4 .7 7.1 3.8 7.9 7.7 0 .1.1.2.2.1.1 0 .1-.1.1-.1.8-4 3.9-7 7.9-7.7.1 0 .2-.1.1-.2 0 0 0-.1-.1-.1z" fill="#f5c84c"/><circle cx="105.7" cy="233.6" fill="#3caadc" r="3"/><circle cx="88.7" cy="10.6" fill="#70d6f9" r="3"/><circle cx="202.7" cy="21.6" fill="#b2e26d" r="3"/><path d="m141.3 237.9h-2.1v-2.1c0-1.5-1.3-2.8-2.8-2.8s-2.8 1.3-2.8 2.8v2.1h-2.1c-1.5 0-2.8 1.3-2.8 2.8s1.3 2.8 2.8 2.8h2.1v2.1c0 1.5 1.3 2.8 2.8 2.8s2.8-1.3 2.8-2.8v-2.1h2.1c1.5 0 2.8-1.3 2.8-2.8s-1.3-2.8-2.8-2.8z" fill="#ef4460"/><path d="m158.1 144.8c0-10.4 5.4-19.3 12.7-22.2v-3.6c0-5.1-4.2-9.2-9.3-9.3h-63c-5.1 0-9.2 4.2-9.3 9.3v52c0 5.1 4.2 9.2 9.3 9.3h63c5.1 0 9.2-4.2 9.3-9.3v-4c-7.4-2.9-12.7-11.8-12.7-22.2z" fill="#fcdd86"/><path d="m111.1 109.7v-12.4c0-10.5 8.5-18.9 18.9-18.9 10.5 0 18.9 8.5 18.9 18.9v12.4h10.9v-12.4c0-16.5-13.4-29.8-29.9-29.7-16.4 0-29.7 13.3-29.7 29.7v12.4z" fill="#c7d7e5"/><path d="m158.1 144.8c0-10.4 5.4-19.3 12.7-22.2v-2.4h-81.6v49.6h81.5v-2.8c-7.3-2.9-12.6-11.8-12.6-22.2z" fill="#f5c84c"/><path d="m137.9 155.9-3.9-9.1c-.4-.9-.1-2 .7-2.7 3.4-2.6 4.1-7.5 1.5-10.9s-7.5-4.1-10.9-1.5-4.1 7.5-1.5 10.9c.4.6.9 1.1 1.5 1.5.8.6 1.1 1.7.7 2.6l-3.9 9.1c-.5 1.2 0 2.7 1.3 3.2.3.1.6.2 1 .2h11.3c1.3 0 2.4-1.1 2.4-2.4 0-.3-.1-.6-.2-.9z" fill="#3a70bf"/><path d="m124.2 150.9h34.5c-.9-4.1-.9-8.3 0-12.3h-36.5c.2 2.2 1.3 4.2 3.1 5.6.8.6 1.1 1.7.7 2.6z" fill="#c7d7e5"/><path d="m193.7 135.9c-.8-.4-1.5-1.1-1.9-2-3-7.3-9-12.3-15.8-12.3-9.9 0-18 10.4-18 23.2s8 23.2 18 23.2c6.9 0 12.8-5 15.8-12.3.3-.9 1-1.6 1.9-2 4.9-2.2 7.1-8 4.9-13-1-2.1-2.7-3.9-4.9-4.8zm-11.4 14.5c-3.1 0-5.7-2.5-5.7-5.7s2.5-5.7 5.7-5.7c3.1 0 5.7 2.5 5.7 5.7 0 3.2-2.5 5.7-5.7 5.7z" fill="#c7d7e5"/><path d="m22.4 192.8h211.2c2.3.1 4.3-1.7 4.4-4v-140c0-2.5-2-4.5-4.5-4.5h-211c-2.5 0-4.5 2-4.5 4.5v140c.1 2.3 2.1 4 4.4 4zm16.1-143.6h194.5v5.5h-194.5zm-15.5 0h10.5v5.5h-10.5zm0 10.6h210v128h-210z"/><path d="m16.6 221.8h222.8c9.2 0 16.6-7.4 16.6-16.6 0-4.1-3.3-7.4-7.4-7.4h-4c2.2-2.5 3.4-5.7 3.4-9v-140c0-8-6.5-14.5-14.5-14.5h-211c-8 0-14.5 6.5-14.5 14.5v140c0 3.3 1.2 6.5 3.4 9h-4c-4.1 0-7.4 3.3-7.4 7.4 0 9.1 7.4 16.5 16.6 16.6zm-3.6-173c0-5.2 4.3-9.5 9.5-9.5h211c5.2 0 9.5 4.3 9.5 9.5v140c-.1 5.1-4.3 9.1-9.4 9h-211.2c-5.1.1-9.3-3.9-9.4-9zm157.4 154c-.4 2-2.2 3.5-4.2 3.5h-75.4c-2.1 0-3.8-1.5-4.2-3.5zm-163 0h74.1c.4 4.8 4.4 8.5 9.2 8.5h75.4c4.8 0 8.8-3.7 9.2-8.5h73.1c1.3 0 2.4 1.1 2.4 2.4 0 6.4-5.2 11.6-11.6 11.6h-222.6c-6.4 0-11.6-5.2-11.6-11.6 0-1.4 1.1-2.4 2.4-2.4z"/><path d="m194.7 133.6c-.3-.1-.5-.4-.6-.7-3.5-8.5-10.5-13.8-18.2-13.8-.9 0-1.8.1-2.7.2v-.3c0-6.2-4.8-11.3-11-11.7v-10c0-17.8-14.5-32.3-32.3-32.3s-32.2 14.5-32.2 32.3v10c-6.2.4-11 5.5-11 11.7v52c0 6.5 5.3 11.8 11.8 11.8h63c6.5 0 11.8-5.3 11.8-11.8v-.7c.9.2 1.8.2 2.7.2 7.7 0 14.6-5.3 18.2-13.8.1-.3.3-.5.6-.7 6.2-2.8 8.9-10.1 6.1-16.3-1.3-2.7-3.5-4.9-6.2-6.1zm-92-36.3c0-15.1 12.2-27.3 27.3-27.3s27.3 12.2 27.3 27.3v9.9h-5.9v-9.9c0-11.8-9.5-21.5-21.4-21.5s-21.5 9.5-21.5 21.4v.1 9.9h-5.9zm43.7 0v9.9h-32.9v-9.9c0-9.1 7.3-16.4 16.4-16.5s16.5 7.3 16.5 16.5c0-.1 0 0 0 0zm-47.9 14.9h63c3.2 0 6 2.3 6.6 5.4h-76.2c.6-3.1 3.4-5.4 6.6-5.4zm-6.8 10.5h73.8c-4.5 4.1-6.9 6.6-8.8 13.4h-16.6c-1-5.6-6.4-9.3-12-8.3s-9.3 6.4-8.3 12c.4 2.5 1.8 4.7 3.7 6.2l-3.8 8.9c-1.1 2.5.1 5.4 2.6 6.5.6.3 1.3.4 1.9.4h11.3c2.7 0 4.9-2.2 4.9-4.9 0-.7-.1-1.3-.4-1.9l-.6-1.5h17.2c1.4 5.5 4.7 10.4 9.3 13.8h-74.2zm64.1 25.7h-27.8c0-.1 2.1-3.8-1.2-6.3-.4-.3-.8-.7-1.1-1.1h30c-.1 1.2-.2 2.4-.2 3.7.1 1.3.1 2.5.3 3.7zm-20.2 8.5h-11.2l1.5-3.4h8.3zm-10.6-20.8c1-2.7 4.1-4.2 6.8-3.1 1.5.5 2.6 1.7 3.1 3.1zm36.5 41.6h-63c-3.2 0-6-2.3-6.6-5.5h76.3c-.7 3.2-3.5 5.5-6.7 5.5zm31.2-26.3c-1.4.7-2.5 1.8-3.1 3.3-2.7 6.6-7.9 10.7-13.5 10.7-9.5 0-15.5-10.8-15.5-20.7 0-9.7 6-20.7 15.5-20.7 5.6 0 10.8 4.1 13.5 10.7.6 1.5 1.7 2.6 3.1 3.3 3.7 1.7 5.3 6 3.6 9.6-.7 1.8-2 3.1-3.6 3.8z"/><path d="m182.3 136.6c-4.5 0-8.2 3.7-8.2 8.2s3.7 8.2 8.2 8.2 8.2-3.7 8.2-8.2-3.7-8.2-8.2-8.2zm0 11.3c-1.7 0-3.2-1.4-3.2-3.2s1.4-3.2 3.2-3.2 3.2 1.4 3.2 3.2c0 1.8-1.4 3.2-3.2 3.2z"/><path d="m167.6 140c-1.4 0-2.5 1.1-2.5 2.5v4.5c0 1.4 1.1 2.5 2.5 2.5s2.5-1.1 2.5-2.5v-4.5c0-1.4-1.1-2.5-2.5-2.5z"/></g></g></svg>