<svg xmlns="http://www.w3.org/2000/svg" width="255.998" height="236.984" viewBox="0 0 255.998 236.984"><defs><style>.a{fill:#f2ba94;}.b{fill:#f9d0b4;}.c{fill:#893c1a;}.d{fill:#0068b4;}.e{fill:#edf4fc;}.f{fill:#5290db;}.g{fill:#eb5c40;}.h{fill:#fcdd86;}.i{fill:#0b3172;}</style></defs><g transform="translate(-0.001 -19.016)"><path class="a" d="M85.519,146.1a38.99,38.99,0,0,1-17.56-4.172v14.567L80.3,176.042H91.879l12.345-19.549V141.337A39,39,0,0,1,85.519,146.1Z"/><path class="a" d="M127.4,76.743a16.422,16.422,0,0,0-2.526.2v29.8c0,.888-.041,1.766-.1,2.64A16.425,16.425,0,1,0,127.4,76.743Z"/><path class="a" d="M46.16,106.739V79.612c0-.893,0-2.672,0-2.672a16.441,16.441,0,1,0,.1,32.44c-.06-.874-.1-1.753-.1-2.641Z"/><path class="b" d="M91.413,58.987C77.037,77.066,55.83,74.515,48.7,73.022a2.1,2.1,0,0,0-2.54,2.029v31.688a39.359,39.359,0,0,0,78.718,0V71.679q0-.309-.006-.616a2.11,2.11,0,0,0-2.032-2.069c-16.351-.479-24.966-6.96-28.277-10.205a2.119,2.119,0,0,0-3.15.2Z"/><path class="c" d="M43.634,76.743a16.557,16.557,0,0,1,2.526.2V75.051a2.1,2.1,0,0,1,2.54-2.029c7.13,1.492,28.337,4.043,42.713-14.035a2.118,2.118,0,0,1,3.15-.2c3.31,3.245,11.926,9.725,28.277,10.205a2.11,2.11,0,0,1,2.032,2.069q.006.308.006.616v5.264A16.335,16.335,0,0,1,138.8,81.354V51.8a22.549,22.549,0,0,0-22.483-22.483,22.261,22.261,0,0,0-11.485,3.206,22.506,22.506,0,0,0-19.281-11H74.008A40.746,40.746,0,0,0,33.381,62.143v18.2a16.347,16.347,0,0,1,10.253-3.6Z"/><path class="d" d="M167.4,218.088H132.112a10.348,10.348,0,0,1-10.317-10.317v-12.85A10.348,10.348,0,0,1,132.112,184.6h32.347a15.526,15.526,0,0,0-11.281-11.35l-14.771-3.718h-6.854a10.3,10.3,0,0,1-7.91-3.716l-1.033-.26-18.388-9.066L91.877,176.043H80.3L67.959,156.494,49.571,165.56,19,173.254a15.532,15.532,0,0,0-11.717,14.2L2.525,245.61a7.3,7.3,0,0,0,7.27,7.89H162.387a7.3,7.3,0,0,0,7.27-7.89Z"/><path class="e" d="M242.625,136.051H131.553a10.348,10.348,0,0,0-10.317,10.317v12.85a10.348,10.348,0,0,0,10.317,10.317H242.624a10.348,10.348,0,0,0,10.317-10.317v-12.85a10.346,10.346,0,0,0-10.316-10.317Z"/><path class="e" d="M243.183,184.6H132.111a10.348,10.348,0,0,0-10.317,10.317v12.85a10.348,10.348,0,0,0,10.317,10.317H243.182A10.348,10.348,0,0,0,253.5,207.771v-12.85A10.346,10.346,0,0,0,243.183,184.6Z"/><path class="f" d="M208.709,79.76H167.083a5.838,5.838,0,0,0-5.821,5.821V116.1a5.838,5.838,0,0,0,5.821,5.821h41.626a5.838,5.838,0,0,0,5.821-5.821V85.581a5.838,5.838,0,0,0-5.821-5.821Z"/><path class="e" d="M178.248,79.76V67.915a9.647,9.647,0,0,1,19.294,0V79.76H208.7V67.915a20.809,20.809,0,0,0-41.618,0V79.76Z"/><path class="g" d="M146.35,184.6H132.112a10.348,10.348,0,0,0-10.317,10.317v12.85a10.348,10.348,0,0,0,10.317,10.317H146.35Z"/><path class="h" d="M146.35,136.051h-14.8a10.348,10.348,0,0,0-10.317,10.317v12.85a10.348,10.348,0,0,0,10.317,10.317h14.8Z"/><circle class="i" cx="6.139" cy="6.139" r="6.139" transform="translate(181.508 91.963)"/><path d="M91.878,178.543H80.3a2.5,2.5,0,0,1-2.114-1.165L65.845,157.829a2.5,2.5,0,0,1-.386-1.335V141.927a2.5,2.5,0,0,1,3.623-2.233,36.279,36.279,0,0,0,16.437,3.9,36.732,36.732,0,0,0,17.51-4.456,2.5,2.5,0,0,1,3.695,2.2v15.155a2.5,2.5,0,0,1-.386,1.335L93.993,177.377a2.5,2.5,0,0,1-2.115,1.166Zm-10.2-5H90.5l11.223-17.772V145.314A41.772,41.772,0,0,1,85.518,148.6a41.152,41.152,0,0,1-15.06-2.823v9.995Z"/><path d="M127.4,112.108a18.867,18.867,0,0,1-3.021-.261,2.5,2.5,0,0,1-2.1-2.637c.064-.947.094-1.732.094-2.471v-29.8a2.5,2.5,0,0,1,2.118-2.471,18.932,18.932,0,1,1,2.908,37.64Zm-.027-5h.027a13.933,13.933,0,1,0,0-27.866h-.026v27.5c0,.122,0,.245,0,.369Z"/><path d="M43.634,112.108a18.933,18.933,0,1,1,2.909-37.64,2.5,2.5,0,0,1,2.118,2.471v29.8c0,.736.03,1.521.094,2.473a2.5,2.5,0,0,1-2.1,2.636,18.91,18.91,0,0,1-3.023.261Zm0-32.865a13.933,13.933,0,0,0,0,27.866h.028c0-.124,0-.247,0-.369v-27.5h-.026Z"/><path d="M85.519,148.6A41.907,41.907,0,0,1,43.66,106.74V75.079a4.6,4.6,0,0,1,5.553-4.5c7.678,1.606,26.974,3.544,40.244-13.145A4.62,4.62,0,0,1,96.313,57c2.754,2.7,10.86,9.03,26.6,9.492a4.6,4.6,0,0,1,4.458,4.518c0,.223.007.444.007.666v35.061A41.906,41.906,0,0,1,85.519,148.6ZM48.66,75.565v31.174a36.859,36.859,0,0,0,73.718,0V71.679c0-.066,0-.132,0-.2-16.216-.568-25.2-6.753-29.265-10.617C78.038,79.478,55.87,76.989,48.66,75.565Zm-.473-.1ZM93.369,60.543l0,0Z"/><path d="M138.8,83.854a2.5,2.5,0,0,1-1.736-.7,13.856,13.856,0,0,0-9.662-3.911,14.121,14.121,0,0,0-2.143.171,2.5,2.5,0,0,1-2.882-2.471V71.678c0-.066,0-.132,0-.2-16.215-.568-25.2-6.753-29.265-10.617C78.037,79.478,55.87,76.989,48.66,75.565v1.377a2.5,2.5,0,0,1-2.882,2.471,14.124,14.124,0,0,0-2.144-.171A13.78,13.78,0,0,0,34.943,82.3a2.5,2.5,0,0,1-4.062-1.952v-18.2A43.175,43.175,0,0,1,74.008,19.016H85.553a25.125,25.125,0,0,1,20.1,10.229,24.761,24.761,0,0,1,10.666-2.431A25.01,25.01,0,0,1,141.3,51.8V81.354a2.5,2.5,0,0,1-2.5,2.5Zm-11.4-9.611a18.8,18.8,0,0,1,8.9,2.223V51.8a19.916,19.916,0,0,0-30.182-17.132,2.5,2.5,0,0,1-3.43-.859,20.117,20.117,0,0,0-17.136-9.789H74.008A38.17,38.17,0,0,0,35.881,62.142V75.9a18.266,18.266,0,0,1,7.854-1.655,4.54,4.54,0,0,1,1.617-2.731,4.6,4.6,0,0,1,3.861-.936c7.678,1.606,26.974,3.544,40.244-13.145A4.619,4.619,0,0,1,96.314,57c2.754,2.7,10.861,9.029,26.6,9.491a4.6,4.6,0,0,1,4.458,4.518c0,.223.007.444.007.666v2.564Z"/><path d="M136.555,256a2.5,2.5,0,0,1-2.5-2.5V218.7a2.5,2.5,0,1,1,5,0v34.8A2.5,2.5,0,0,1,136.555,256Z"/><path d="M34.483,256a2.5,2.5,0,0,1-2.5-2.5V218.7a2.5,2.5,0,1,1,5,0v34.8A2.5,2.5,0,0,1,34.483,256Z"/><path d="M85.788,126a17.466,17.466,0,0,1-14.489-7.7,2.5,2.5,0,1,1,4.143-2.8,12.48,12.48,0,0,0,20.692,0,2.5,2.5,0,0,1,4.143,2.8A17.466,17.466,0,0,1,85.788,126Z"/><path d="M162.387,256H9.795A9.8,9.8,0,0,1,.033,245.406L4.8,187.248a17.93,17.93,0,0,1,13.6-16.418L48.7,163.2l18.15-8.949a2.5,2.5,0,0,1,3.219.907l11.609,18.384H90.5l11.609-18.384a2.5,2.5,0,0,1,3.219-.907l18.15,8.949.776.2a2.5,2.5,0,0,1,1.306.82,7.807,7.807,0,0,0,5.993,2.82h6.854a2.456,2.456,0,0,1,.61.076l14.771,3.718a17.99,17.99,0,0,1,13.1,13.177,2.5,2.5,0,0,1-2.428,3.1H132.111a7.826,7.826,0,0,0-7.817,7.817v12.85a7.826,7.826,0,0,0,7.817,7.817H167.4a2.5,2.5,0,0,1,2.491,2.3l2.254,27.522A9.792,9.792,0,0,1,162.387,256ZM67.046,159.731,50.676,167.8a2.49,2.49,0,0,1-.495.182l-30.567,7.694a12.976,12.976,0,0,0-9.831,11.913L5.016,245.814A4.794,4.794,0,0,0,9.795,251H162.387a4.794,4.794,0,0,0,4.779-5.185L165.1,220.589H132.112a12.832,12.832,0,0,1-12.817-12.817v-12.85A12.832,12.832,0,0,1,132.112,182.1h28.726a12.987,12.987,0,0,0-8.27-6.426l-14.47-3.642h-6.544a12.779,12.779,0,0,1-9.261-3.978l-.293-.075a2.49,2.49,0,0,1-.5-.182l-16.37-8.071L93.991,177.378a2.5,2.5,0,0,1-2.114,1.165H80.3a2.5,2.5,0,0,1-2.114-1.165Z"/><path d="M242.625,172.036H131.554a12.832,12.832,0,0,1-12.817-12.817v-12.85a12.832,12.832,0,0,1,12.817-12.817H242.625a12.832,12.832,0,0,1,12.817,12.817v12.85A12.832,12.832,0,0,1,242.625,172.036ZM131.554,138.551a7.826,7.826,0,0,0-7.817,7.817v12.85a7.826,7.826,0,0,0,7.817,7.817H242.625a7.826,7.826,0,0,0,7.817-7.817v-12.85a7.826,7.826,0,0,0-7.817-7.817Z"/><path d="M243.183,220.588H132.111a12.832,12.832,0,0,1-12.817-12.817v-12.85A12.832,12.832,0,0,1,132.111,182.1H243.182A12.832,12.832,0,0,1,256,194.921v12.85A12.83,12.83,0,0,1,243.183,220.588ZM132.111,187.1a7.826,7.826,0,0,0-7.817,7.817v12.85a7.826,7.826,0,0,0,7.817,7.817H243.182A7.826,7.826,0,0,0,251,207.771v-12.85a7.826,7.826,0,0,0-7.817-7.817Z"/><path d="M208.709,124.416H167.082a8.331,8.331,0,0,1-8.321-8.321V85.581a8.331,8.331,0,0,1,8.321-8.321h41.627a8.331,8.331,0,0,1,8.321,8.321V116.1A8.331,8.331,0,0,1,208.709,124.416ZM167.082,82.26a3.325,3.325,0,0,0-3.321,3.321V116.1a3.324,3.324,0,0,0,3.321,3.321h41.627a3.325,3.325,0,0,0,3.321-3.321V85.581a3.324,3.324,0,0,0-3.321-3.321Z"/><path d="M167.837,208.034a2.494,2.494,0,0,1-1.768-.732l-7.808-7.809a2.5,2.5,0,1,1,3.535-3.536l7.808,7.809a2.5,2.5,0,0,1-1.767,4.268Z"/><path d="M160.029,208.034a2.5,2.5,0,0,1-1.768-4.268l7.808-7.809a2.5,2.5,0,1,1,3.535,3.536L161.8,207.3A2.489,2.489,0,0,1,160.029,208.034Z"/><path d="M188.3,208.034a2.494,2.494,0,0,1-1.768-.732l-7.808-7.809a2.5,2.5,0,1,1,3.535-3.536l7.808,7.809a2.5,2.5,0,0,1-1.767,4.268Z"/><path d="M180.492,208.034a2.5,2.5,0,0,1-1.768-4.268l7.808-7.809a2.5,2.5,0,1,1,3.535,3.536l-7.808,7.809A2.49,2.49,0,0,1,180.492,208.034Z"/><path d="M208.763,208.034a2.494,2.494,0,0,1-1.768-.732l-7.809-7.809a2.5,2.5,0,0,1,3.535-3.535l7.809,7.809a2.5,2.5,0,0,1-1.767,4.267Z"/><path d="M200.954,208.034a2.5,2.5,0,0,1-1.768-4.267l7.809-7.809a2.5,2.5,0,0,1,3.535,3.535l-7.809,7.809A2.49,2.49,0,0,1,200.954,208.034Z"/><path d="M229.226,208.034a2.494,2.494,0,0,1-1.768-.732l-7.809-7.809a2.5,2.5,0,0,1,3.535-3.535l7.809,7.809a2.5,2.5,0,0,1-1.767,4.267Z"/><path d="M221.417,208.034a2.5,2.5,0,0,1-1.768-4.267l7.809-7.809a2.5,2.5,0,0,1,3.535,3.535l-7.809,7.809A2.49,2.49,0,0,1,221.417,208.034Z"/><path d="M234.525,154.736H160.859a2.5,2.5,0,0,1,0-5h73.666a2.5,2.5,0,0,1,0,5Z"/><path d="M208.705,82.26H197.543a2.5,2.5,0,0,1-2.5-2.5V67.915a7.147,7.147,0,0,0-14.294,0V79.76a2.5,2.5,0,0,1-2.5,2.5H167.088a2.5,2.5,0,0,1-2.5-2.5V67.915a23.31,23.31,0,0,1,46.619,0V79.76A2.5,2.5,0,0,1,208.705,82.26Zm-8.662-5h6.162V67.915a18.31,18.31,0,0,0-36.619,0V77.26h6.161V67.915a12.147,12.147,0,0,1,24.294,0V77.26Z"/><path d="M146.35,220.588H132.112a12.832,12.832,0,0,1-12.817-12.817v-12.85A12.832,12.832,0,0,1,132.112,182.1H146.35a2.5,2.5,0,0,1,2.5,2.5v33.484a2.5,2.5,0,0,1-2.5,2.5ZM132.111,187.1a7.826,7.826,0,0,0-7.817,7.817v12.85a7.826,7.826,0,0,0,7.817,7.817h11.738V187.1Z"/><path d="M146.35,172.036h-14.8a12.832,12.832,0,0,1-12.817-12.817v-12.85a12.832,12.832,0,0,1,12.817-12.817h14.8a2.5,2.5,0,0,1,2.5,2.5v33.485a2.5,2.5,0,0,1-2.5,2.5Zm-14.8-33.485a7.826,7.826,0,0,0-7.817,7.817v12.85a7.826,7.826,0,0,0,7.817,7.817h12.3V138.55h-12.3Z"/><path d="M187.647,106.741a8.639,8.639,0,1,1,8.639-8.639A8.648,8.648,0,0,1,187.647,106.741Zm0-12.278a3.639,3.639,0,1,0,3.639,3.639A3.643,3.643,0,0,0,187.647,94.463Z"/><circle cx="2.498" cy="2.498" r="2.498" transform="translate(68.522 90.434)"/><circle cx="2.498" cy="2.498" r="2.498" transform="translate(98.052 90.434)"/><circle cx="2.498" cy="2.498" r="2.498" transform="translate(83.032 187.572)"/><circle cx="2.498" cy="2.498" r="2.498" transform="translate(83.032 203.866)"/><circle cx="2.498" cy="2.498" r="2.498" transform="translate(83.032 220.16)"/><circle cx="2.498" cy="2.498" r="2.498" transform="translate(83.032 236.455)"/></g></svg>