<svg id="Layer_1" enable-background="new 0 0 512 512" height="512" viewBox="0 0 512 512" width="512" xmlns="http://www.w3.org/2000/svg"><g><g><path clip-rule="evenodd" d="m476.587 422.834v-28.574c0-11.537-9.467-20.976-21.004-20.976h-174.61l1.446 14.145 7.001 68.627h11.537c13.323 0 24.207 10.913 24.207 24.236v19.077c0 2.806-2.296 5.131-5.131 5.131h5.046 151.508z" fill="#f9f7f8" fill-rule="evenodd"/></g><g><path clip-rule="evenodd" d="m413.914 264.943-124.268-60.236c-20.579 2.324-25.256 20.183-21.968 38.041-.028 0-.057 0-.057.028l114.319 77.528c15.222 8.787 34.865 3.515 43.681-11.707 8.787-15.222 3.515-34.866-11.707-43.654z" fill="#375e7d" fill-rule="evenodd"/></g><g><path clip-rule="evenodd" d="m289.42 456.056-7.002-68.627-31.123-8.391-30.104 8.391-7.001 68.627 33.505 18.623z" fill="#f9f7f8" fill-rule="evenodd"/></g><g><path clip-rule="evenodd" d="m325.164 499.369v-19.077c0-13.323-10.885-24.236-24.207-24.236h-11.537-75.23-11.537c-13.294 0-24.207 10.913-24.207 24.236v19.077c0 2.806 2.296 5.131 5.131 5.131h136.457c2.834 0 5.13-2.324 5.13-5.131z" fill="#4fc9af" fill-rule="evenodd"/></g><g><path clip-rule="evenodd" d="m121.669 320.304 114.347-77.528c.737-14.287 3.657-35.376-22.053-38.069l-124.268 60.236c-15.222 8.787-20.466 28.432-11.678 43.654 8.787 15.222 28.431 20.495 43.652 11.707z" fill="#375e7d" fill-rule="evenodd"/></g><g><path clip-rule="evenodd" d="m278.28 347.035-10.658-104.259c-8.447-6.633-19.984-8.277-31.606 0l-10.686 104.259 26.475 20.211z" fill="#f9f7f8" fill-rule="evenodd"/></g><g><path clip-rule="evenodd" d="m273.829 177.211 9.978-137.764c0-17.575-14.371-31.947-31.974-31.947-17.574 0-31.946 14.372-31.946 31.947l9.949 137.708c14.769 17.829 32.57 17.546 43.993.056z" fill="#375e7d" fill-rule="evenodd"/></g><g><path clip-rule="evenodd" d="m289.816 208.194c0-1.191-.057-2.353-.17-3.487-1.02-11.339-7.03-21.232-15.817-27.496-6.208-4.422-13.804-7.03-22.025-7.03-8.192 0-15.76 2.58-21.968 6.973-8.816 6.265-14.853 16.186-15.874 27.553-.113 1.134-.17 2.296-.17 3.487 0 15.335 9.099 28.573 22.223 34.583 4.79 2.183 10.148 3.43 15.789 3.43s10.998-1.247 15.817-3.43l.057-.028c13.068-6.039 22.138-19.248 22.138-34.555z" fill="#ffd772" fill-rule="evenodd"/></g><g><path clip-rule="evenodd" d="m289.816 208.194c0-1.191-.057-2.353-.17-3.487-1.02-11.339-7.03-21.232-15.817-27.496-6.208-4.422-13.804-7.03-22.025-7.03-6.179 0-12.047 1.474-17.206 4.11 2.636 1.106 5.131 2.494 7.427 4.11 8.787 6.265 14.796 16.158 15.817 27.496.113 1.162.17 2.324.17 3.487 0 14.797-8.447 27.638-20.806 33.902 4.507 1.871 9.439 2.92 14.598 2.92 5.641 0 10.998-1.247 15.817-3.43l.057-.028c13.068-6.038 22.138-19.247 22.138-34.554z" fill="#fbba58" fill-rule="evenodd"/></g><g><path clip-rule="evenodd" d="m273.829 177.211 9.978-137.764c0-17.575-14.371-31.947-31.974-31.947-3.94 0-7.738.709-11.225 2.041 11.934 4.649 20.466 16.271 20.466 29.821l-9.467 130.819h.198c8.22 0 15.817 2.608 22.024 7.03z" fill="#2b4d66" fill-rule="evenodd"/></g><g><path clip-rule="evenodd" d="m381.94 296.295-98.615-66.87c-3.883 5.754-9.297 10.375-15.647 13.323-.028 0-.057 0-.057.028l114.319 77.528c15.222 8.787 34.865 3.515 43.681-11.707 5.074-8.816 5.442-19.134 1.899-27.95-.539 1.361-1.162 2.665-1.899 3.94-8.815 15.223-28.459 20.495-43.681 11.708z" fill="#2b4d66" fill-rule="evenodd"/></g><g><path clip-rule="evenodd" d="m98.397 287.706 121.49-58.876c-3.855-5.953-6.094-13.039-6.094-20.636 0-1.191.057-2.353.17-3.487l-124.268 60.236c-15.222 8.787-20.466 28.432-11.678 43.654 1.247 2.183 2.75 4.195 4.422 5.953.312-10.744 6.009-21.09 15.958-26.844z" fill="#2b4d66" fill-rule="evenodd"/></g><g><path clip-rule="evenodd" d="m282.418 387.429-4.138-40.394h-52.95l-4.139 40.394z" fill="#4fc9af" fill-rule="evenodd"/></g><g><path clip-rule="evenodd" d="m278.28 347.035-10.658-104.259c-4.819 2.183-10.176 3.43-15.817 3.43-1.559 0-3.09-.113-4.62-.283l10.346 101.112z" fill="#e5e4ec" fill-rule="evenodd"/></g><g><path clip-rule="evenodd" d="m280.973 373.284-2.693-26.249h-20.749l1.502 14.683 2.041 19.956.595 5.755h20.749z" fill="#26bb9e" fill-rule="evenodd"/></g><g><path clip-rule="evenodd" d="m289.42 456.056-7.002-68.627h-20.749l7.03 68.627z" fill="#e5e4ec" fill-rule="evenodd"/></g><g><path clip-rule="evenodd" d="m325.164 499.369v-19.077c0-13.323-10.885-24.236-24.207-24.236h-11.537-9.212c2.409 0 4.734.369 6.945 1.021 9.949 3.005 17.263 12.302 17.263 23.216v19.077c0 2.806-2.296 5.131-5.102 5.131h20.721c2.833-.001 5.129-2.325 5.129-5.132z" fill="#26bb9e" fill-rule="evenodd"/></g><g><path clip-rule="evenodd" d="m476.587 394.26c0-11.537-9.467-20.976-21.004-20.976h-25.199c11.565 0 21.004 9.439 21.004 20.976v110.24h25.199c0-36.737 0-73.503 0-110.24z" fill="#e5e4ec" fill-rule="evenodd"/></g><g><path d="m63.759 72.799h109.273c4.142 0 7.5-3.358 7.5-7.5s-3.358-7.5-7.5-7.5h-109.273c-4.142 0-7.5 3.358-7.5 7.5s3.358 7.5 7.5 7.5z"/><path d="m63.759 110.415h18.028c4.142 0 7.5-3.358 7.5-7.5s-3.358-7.5-7.5-7.5h-18.028c-4.142 0-7.5 3.358-7.5 7.5s3.358 7.5 7.5 7.5z"/><path d="m121.783 95.415c-4.142 0-7.5 3.358-7.5 7.5s3.358 7.5 7.5 7.5h38.749c4.142 0 7.5-3.358 7.5-7.5s-3.358-7.5-7.5-7.5z"/><path d="m330.634 82.748h110.301c19.766 0 36.263-16.023 36.263-35.79s-16.08-35.847-35.846-35.847h-23.582c-4.142 0-7.5 3.358-7.5 7.5s3.358 7.5 7.5 7.5h23.583c11.494 0 20.846 9.352 20.846 20.847 0 11.115-8.749 20.198-19.718 20.79h-111.847c-4.142 0-7.5 3.358-7.5 7.5s3.358 7.5 7.5 7.5z"/><path d="m389.384 112.864c0-4.142-3.358-7.5-7.5-7.5h-38.749c-4.142 0-7.5 3.358-7.5 7.5s3.358 7.5 7.5 7.5h38.749c4.142 0 7.5-3.358 7.5-7.5z"/><path d="m439.936 105.364h-18.056c-4.142 0-7.5 3.358-7.5 7.5s3.358 7.5 7.5 7.5h18.056c4.142 0 7.5-3.358 7.5-7.5s-3.358-7.5-7.5-7.5z"/><path d="m354.133 157.98h85.802c4.142 0 7.5-3.358 7.5-7.5s-3.358-7.5-7.5-7.5h-85.802c-4.142 0-7.5 3.358-7.5 7.5s3.358 7.5 7.5 7.5z"/><path d="m94.843 197.224c0-4.142-3.358-7.5-7.5-7.5h-23.584c-11.494 0-20.846-9.352-20.846-20.847s9.352-20.847 20.846-20.847h85.774c4.142 0 7.5-3.358 7.5-7.5s-3.358-7.5-7.5-7.5h-85.774c-19.766 0-35.846 16.081-35.846 35.847s16.08 35.847 35.846 35.847h23.584c4.142 0 7.5-3.358 7.5-7.5z"/><path d="m392.915 403.222c-3.412-2.352-8.08-1.491-10.432 1.919l-17.867 25.922c-1.117 1.628-4.085 5.954-1.595 10.682 1.113 2.114 3.529 4.633 8.715 4.633h5.437l-12.232 17.719c-2.354 3.409-1.498 8.08 1.911 10.433 1.301.898 2.785 1.329 4.254 1.329 2.381 0 4.724-1.131 6.179-3.24l17.899-25.926c1.116-1.627 4.082-5.95 1.592-10.677-1.114-2.116-3.535-4.638-8.741-4.638h-5.417l12.216-17.724c2.35-3.411 1.491-8.081-1.919-10.432z"/><path d="m455.583 365.784h-69.787c-4.142 0-7.5 3.358-7.5 7.5s3.358 7.5 7.5 7.5h69.787c7.446 0 13.504 6.045 13.504 13.477v21.073h-26.147c-4.142 0-7.5 3.358-7.5 7.5s3.358 7.5 7.5 7.5h26.146v22.077h-26.146c-4.142 0-7.5 3.358-7.5 7.5s3.358 7.5 7.5 7.5h26.146v29.589h-136.422v-16.708c0-17.5-14.224-31.736-31.707-31.736h-4.765l-1.864-18.222h26.245c4.142 0 7.5-3.358 7.5-7.5s-3.358-7.5-7.5-7.5h-27.779l-3.534-34.55h61.898c4.142 0 7.5-3.358 7.5-7.5s-3.358-7.5-7.5-7.5h-63.433l-11.026-107.791 101.033 68.518c.149.102.303.198.459.288 6.19 3.574 12.958 5.271 19.646 5.271 13.65 0 26.957-7.078 34.281-19.724 10.875-18.84 4.393-43.02-14.452-53.898-.156-.09-.315-.175-.478-.253l-44.248-21.458c-3.725-1.807-8.213-.251-10.021 3.476-1.807 3.727-.251 8.213 3.476 10.021l43.989 21.333c11.514 6.804 15.442 21.677 8.748 33.272-6.724 11.612-21.581 15.657-33.221 9.096l-104.725-71.022c7.872-6.672 13.448-15.965 15.377-26.52l37.831 18.335c1.054.511 2.168.753 3.266.753 2.784 0 5.458-1.557 6.754-4.231 1.807-3.728.25-8.213-3.478-10.02l-44.426-21.531c-1.944-10.249-7.332-19.288-14.915-25.87l9.693-133.84c.013-.181.02-.361.02-.542-.001-21.751-17.709-39.447-39.475-39.447-21.75 0-39.445 17.696-39.445 39.447 0 .18.006.361.02.541l9.666 133.791c-7.614 6.587-13.025 15.645-14.974 25.921l-120.676 58.494c-.163.079-.322.164-.479.254-18.833 10.873-25.304 35.051-14.424 53.898 5.251 9.097 13.763 15.615 23.966 18.352 3.424.918 6.896 1.373 10.342 1.373 6.824 0 13.546-1.782 19.59-5.272.156-.09.31-.186.459-.288l101.04-68.506-19.5 190.55h-4.765c-17.483 0-31.708 14.237-31.708 31.736v19.077c0 6.965 5.666 12.631 12.631 12.631h293.01c4.142 0 7.5-3.358 7.5-7.5v-110.239c.001-15.702-12.786-28.476-28.503-28.476zm-203.75-350.784c13.41 0 24.336 10.83 24.473 24.194l-9.137 126.162c-4.802-1.728-9.974-2.675-15.364-2.675-5.367 0-10.517.94-15.302 2.654l-9.113-126.141c.136-13.363 11.048-24.194 24.443-24.194zm-134.133 298.934c-5.577 3.144-12.075 3.953-18.326 2.276-6.334-1.699-11.612-5.734-14.861-11.363-6.703-11.611-2.787-26.483 8.714-33.281l113.821-55.172c1.93 10.56 7.51 19.855 15.389 26.528zm103.593-105.741c0-16.825 13.688-30.513 30.512-30.513s30.512 13.688 30.512 30.513c0 11.973-7.353 23.3-18.406 28.011-3.828 1.632-7.941 2.501-12.106 2.501-16.825.001-30.512-13.687-30.512-30.512zm50.202 146.342 2.598 25.394h-44.573l2.599-25.394zm-37.842-15 8.881-86.781c2.994.622 6.094.952 9.271.952 3.179 0 6.282-.33 9.279-.954l8.878 86.783zm-5.669 55.394h47.643l5.486 53.627h-58.617zm89.68 102.071h-131.718v-16.708c0-9.229 7.495-16.736 16.708-16.736h98.303c9.212 0 16.707 7.508 16.707 16.736z"/><path d="m245.593 212.382c1.445 2.168 3.823 3.341 6.247 3.341 1.43 0 2.875-.408 4.153-1.261 3.447-2.297 4.378-6.954 2.08-10.4l-.057-.085c-2.298-3.446-6.955-4.377-10.4-2.08-3.447 2.297-4.378 6.954-2.08 10.4z"/></g></g></svg>