<svg id="Layer_1" enable-background="new 0 0 256 256" height="512" viewBox="0 0 256 256" width="512" xmlns="http://www.w3.org/2000/svg"><g id="Layer_20"><g><path d="m215.5 201.4c-4.5 2.6-10 2.6-14.5 0-23.5-13.7-38-37.9-38-64.3v-22c0-2 1.3-3.8 3.2-4.3 14.4-4.2 26.9-8.8 36-18.4 3.1-3.4 8.4-3.5 11.7-.4.1.1.3.3.4.4 5.3 5.6 11.8 9.5 19.2 12.7v-20.7c0-5.1-4.2-9.3-9.3-9.3h-136c-5.1 0-9.3-4.2-9.3-9.3v-8.2c0-7.2-5.9-13.1-13.1-13.1h-50.2c-7.2 0-13.1 5.9-13.1 13.1v151.2c0 5.1 4.2 9.3 9.3 9.3h212.4c5.1 0 9.3-4.2 9.3-9.3v-21.9c-5.3 5.8-11.4 10.6-18 14.5z" fill="#70d6f9"/><path d="m192.9 21.1h-170.6c-1.7 0-3 1.4-3 3v20.5h46.6c7.2 0 13.1 5.9 13.1 13.1v8.2c0 5.1 4.2 9.3 9.3 9.3h128.5v-30.4z" fill="#edf4fc"/><path d="m19.3 33.2c-6.8.5-12.1 6.2-12.1 13.1v1.5c2.4-2 5.4-3.1 8.5-3.1h3.7z" fill="#3caadc"/><path d="m215.7 33.1h-10.7l11.7 11.7v30.3h7.5c1.6 0 3.2.4 4.6 1.2v-30.1c0-7.2-5.9-13.1-13.1-13.1z" fill="#3caadc"/><path d="m196 44.8h20.7l-23.8-23.8v20.7c0 1.8 1.4 3.1 3.1 3.1z" fill="#c7d7e5"/><circle cx="172" cy="232.6" fill="#ef4460" r="3"/><path d="m253.2 32.9h-2.1v-2.1c0-1.5-1.3-2.8-2.8-2.8s-2.8 1.3-2.8 2.8v2.1h-2.1c-1.5 0-2.8 1.3-2.8 2.8s1.3 2.8 2.8 2.8h2.1v2.1c0 1.5 1.3 2.8 2.8 2.8s2.8-1.3 2.8-2.8v-2.1h2.1c1.5 0 2.8-1.3 2.8-2.8 0-1.6-1.3-2.8-2.8-2.8z" fill="#70d6f9"/><circle cx="220" cy="16.6" fill="#b2e26d" r="3"/><circle cx="41" cy="229.6" fill="#ef4460" r="3"/><path d="m253.5 115.1c0-2-1.3-3.8-3.2-4.3-14.4-4.2-26.9-8.8-36-18.4-3.1-3.4-8.4-3.5-11.7-.4-.1.1-.3.3-.4.4-9.1 9.6-21.5 14.2-36 18.4-1.9.6-3.2 2.3-3.2 4.3v22c0 26.3 14.5 50.5 38 64.3 4.5 2.6 10 2.6 14.5 0 23.5-13.7 38-37.9 38-64.3z" fill="#fc657e"/><path d="m171.5 118.2v18.9c0 23.2 12.6 44.5 33.8 56.8 1.8 1.1 4 1.1 5.8 0 21.1-12.4 33.8-33.6 33.8-56.8v-18.9c-13.1-3.9-26.5-8.9-36.7-19.7-10.2 10.8-23.6 15.8-36.7 19.7z" fill="#ef4460"/><path d="m186.5 133.2h43.5c1.5 0 2.7 1.2 2.7 2.7v16.7c0 1.5-1.2 2.7-2.7 2.7h-43.5c-1.5 0-2.7-1.2-2.7-2.7v-16.7c0-1.5 1.2-2.7 2.7-2.7z" fill="#edf4fc"/><path d="m75.8 234.1c-4-.7-7.1-3.8-7.9-7.7 0-.1-.1-.2-.2-.1-.1 0-.1.1-.1.1-.8 4-3.9 7-7.9 7.7-.1 0-.2.1-.1.2 0 .1.1.1.1.1 4 .7 7.1 3.8 7.9 7.7 0 .1.1.2.2.1.1 0 .1-.1.1-.1.8-4 3.9-7 7.9-7.7.1 0 .2-.1.1-.2.1 0 0-.1-.1-.1z" fill="#f5c84c"/><path d="m11.8 220.7h212.4c6.5 0 11.8-5.3 11.8-11.8v-20.8c12.9-13.9 20-32.1 20-51v-22c0-3.1-2.1-5.8-5-6.7-5.5-1.6-10.5-3.2-15-5v-19c0-3.7-1.7-7.1-4.6-9.3v-28.9c0-8.6-7-15.6-15.6-15.6h-9.8l-11.3-11.3c-.5-.5-1.1-.7-1.8-.7h-170.6c-3 0-5.5 2.5-5.5 5.5v6.9c-7.1 1.7-12.1 8-12.2 15.2v.4c-2.9 2.9-4.6 6.9-4.6 11.1v151.2c0 6.5 5.3 11.8 11.8 11.8zm237.8-107.5c.8.3 1.4 1 1.4 1.9v22c0 26.3-14.7 49.2-36.8 62.1-3.7 2.2-8.3 2.2-12 0-23-13.5-36.8-36.7-36.8-62.1v-22c0-.9.6-1.7 1.4-1.9 13.3-3.8 27.1-8.5 37.1-19.1 2.2-2.4 5.8-2.5 8.2-.3.1.1.2.2.3.3 9.9 10.4 23.5 15.2 37.2 19.1zm-33.9-77.6c5.9 0 10.6 4.8 10.6 10.6v26.6c-.7-.1-1.4-.2-2.1-.2h-5v-27.8c0-.7-.3-1.3-.7-1.8l-7.5-7.5h4.7zm-20.3-8.5 15.2 15.2h-14.6c-.3 0-.5-.2-.5-.5zm-173.6-3c0-.3.2-.5.5-.5h168.2v18.2c0 3 2.5 5.5 5.5 5.5h18.2v25.3h-126c-3.7 0-6.8-3-6.8-6.8v-8.2c0-8.6-7-15.6-15.6-15.6h-44zm-5 12.1v5.9c-2.3-.1-4.5.2-6.6 1 .9-3.2 3.4-5.8 6.6-6.9zm-11.8 21.5c0-3.1 1.4-6.1 3.8-8.1 4-3.4 8.2-2.4 10.5-2.5h46.6c5.9 0 10.6 4.7 10.6 10.6v8.2c0 6.5 5.3 11.8 11.8 11.8h136c3.7 0 6.8 3 6.8 6.8v16.8c-5.6-2.5-10.6-6.1-14.8-10.5-4.1-4.4-10.9-4.6-15.2-.5-.2.2-.4.4-.5.5-8.2 8.7-19.4 13.2-34.8 17.7-3 .9-5 3.6-5 6.7v22c0 27.2 14.7 52.1 39.3 66.4 5.3 3.1 11.8 3.1 17 0 5.1-3 9.9-6.5 14.2-10.4v15.8c0 3.7-3 6.8-6.8 6.8h-212.7c-3.7 0-6.8-3-6.8-6.8z"/><path d="m159.4 50.9h20.7c1.4 0 2.5-1.1 2.5-2.5s-1.1-2.5-2.5-2.5h-20.7c-1.4 0-2.5 1.1-2.5 2.5s1.1 2.5 2.5 2.5z"/><path d="m144.1 50.9h4.4c1.4 0 2.5-1.1 2.5-2.5s-1.1-2.5-2.5-2.5h-4.4c-1.4 0-2.5 1.1-2.5 2.5s1.1 2.5 2.5 2.5z"/><path d="m206.4 96.8c-9.8 10.3-22.9 15.2-35.6 19-1.1.3-1.8 1.3-1.8 2.4v18.9c0 24.1 13.1 46.2 35 59 2.6 1.5 5.8 1.5 8.4 0 21.9-12.8 35-34.9 35-59v-18.9c0-1.1-.7-2.1-1.8-2.4-12.7-3.8-25.8-8.7-35.6-19-.9-1-2.5-1.1-3.6 0 .1-.1 0 0 0 0zm36 40.3c0 22.3-12.2 42.8-32.5 54.7-1 .6-2.3.6-3.3 0-20.4-11.9-32.5-32.3-32.5-54.7v-17.1c12.1-3.7 24.4-8.6 34.2-18 9.8 9.4 22.1 14.3 34.2 18v17.1z"/><path d="m181.3 135.9v16.7c0 2.9 2.3 5.2 5.2 5.2h43.5c2.9 0 5.2-2.3 5.2-5.2v-16.7c0-2.9-2.3-5.2-5.2-5.2h-43.5c-2.9 0-5.2 2.4-5.2 5.2zm48.8 0v16.7c0 .1-.1.2-.2.2h-43.5c-.1 0-.2-.1-.2-.2v-16.7c0-.1.1-.2.2-.2h43.6c.1 0 .1.1.1.2z"/><path d="m190.9 148.8c1 1 2.6 1 3.5 0l1-1 1 1c1 1 2.5 1 3.5 0s1-2.5 0-3.5l-1-1 1-1c1-1 1-2.5 0-3.5s-2.5-1-3.5 0l-1 1-1-1c-1-1-2.5-1-3.5-.1-1 1-1 2.5-.1 3.5 0 0 0 0 .1.1l1 1-1 1c-1 .9-1 2.5 0 3.5-.1 0-.1 0 0 0z"/><path d="m204 148.8c1 1 2.6 1 3.5 0l1-1 1 1c1 1 2.5 1 3.5 0s1-2.5 0-3.5l-1-1 1-1c1-1 1-2.5 0-3.5s-2.5-1-3.5 0l-1 1-1-1c-1-1-2.5-1-3.5 0s-1 2.5 0 3.5l1 1-1 1c-1 .9-1 2.5 0 3.5z"/><path d="m217.2 148.8c1 1 2.6 1 3.5 0l1-1 1 1c1 1 2.5 1 3.5 0s1-2.5 0-3.5l-1-1 1-1c1-1 1-2.5 0-3.5s-2.5-1-3.5 0l-1 1-1-1c-1-1-2.5-1-3.5 0s-1 2.5 0 3.5l1 1-1 1c-1 .9-1 2.5 0 3.5z"/></g></g></svg>