<svg xmlns="http://www.w3.org/2000/svg" width="256" height="187.5" viewBox="0 0 256 187.5"><defs><style>.a{fill:#0068b4;}.b{fill:#3caadc;}.c{fill:#edf4fc;}.d{fill:#9be5f9;}.e{fill:#5290db;}.f{fill:#c7d7e5;}.g{fill:#fcdd86;}.h{fill:#eb5c40;}.i{fill:#0b3172;}</style></defs><g transform="translate(0 -34.3)"><path class="a" d="M233.5,36.8H22.5a12.035,12.035,0,0,0-12,12V189.7a11.768,11.768,0,0,0,11.9,10.6H233.6a11.768,11.768,0,0,0,11.9-10.6V48.8a11.971,11.971,0,0,0-12-12Z"/><path class="b" d="M233.6,190.2a1.75,1.75,0,0,0,1.9-1.4V48.7a2.006,2.006,0,0,0-2-2H22.5a2.006,2.006,0,0,0-2,2V188.9a1.765,1.765,0,0,0,1.9,1.3Z"/><path class="c" d="M233.5,46.8H22.5a2.006,2.006,0,0,0-2,2v8.5h215V48.8A2.006,2.006,0,0,0,233.5,46.8Z"/><path class="d" d="M36,46.8H22.5a2.006,2.006,0,0,0-2,2v8.5H36Z"/><path class="d" d="M184.2,105.1a2.476,2.476,0,0,1-2.5-2.5,2.5,2.5,0,0,1,.8-1.8L194.7,89a2.342,2.342,0,0,1,1.7-.7h14.4a2.5,2.5,0,0,1,0,5H197.4l-11.5,11.1a2.609,2.609,0,0,1-1.7.7Z"/><path class="d" d="M211.3,158.8H197.9l-4.8-4.7a4.813,4.813,0,0,0-1.2,1.6c-.4,1-.9,1.9-1.4,2.9l4.7,4.5a2.342,2.342,0,0,0,1.7.7h14.4a2.5,2.5,0,0,0,0-5Z"/><path class="d" d="M210.3,123.5H183.7a.9.9,0,0,0-.5.1,18.485,18.485,0,0,1,5.5,4.9h21.6a2.5,2.5,0,0,0,0-5Z"/><path class="d" d="M71.8,105.1a2.476,2.476,0,0,0,2.5-2.5,2.5,2.5,0,0,0-.8-1.8L61.3,88.9a2.342,2.342,0,0,0-1.7-.7H45.2a2.5,2.5,0,0,0,0,5H58.6l11.5,11.1a2.289,2.289,0,0,0,1.7.8Z"/><path class="d" d="M44.7,163.8H59.1a2.609,2.609,0,0,0,1.7-.7L73,151.3a2.476,2.476,0,0,0-3.4-3.6L58.1,158.8H44.7a2.5,2.5,0,0,0,0,5Z"/><path class="d" d="M45.7,128.5H72.3a2.5,2.5,0,0,0,0-5H45.7a2.5,2.5,0,0,0,0,5Z"/><path class="e" d="M248.6,200.2H7.4a4.908,4.908,0,0,0-4.9,4.9,14.084,14.084,0,0,0,14.1,14.1H239.4a14.084,14.084,0,0,0,14.1-14.1,4.974,4.974,0,0,0-4.9-4.9Z"/><path class="f" d="M84,200.2v1.7a6.807,6.807,0,0,0,6.8,6.8h75.4a6.807,6.807,0,0,0,6.8-6.8v-1.7Z"/><path class="g" d="M158.1,144.8c0-10.4,5.4-19.3,12.7-22.2V119a9.413,9.413,0,0,0-9.3-9.3h-63a9.413,9.413,0,0,0-9.3,9.3v52a9.413,9.413,0,0,0,9.3,9.3h63a9.413,9.413,0,0,0,9.3-9.3v-4C163.4,164.1,158.1,155.2,158.1,144.8Z"/><path class="f" d="M111.1,109.7V97.3a18.9,18.9,0,1,1,37.8,0v12.4h10.9V97.3a29.8,29.8,0,0,0-59.6,0v12.4Z"/><path class="h" d="M158.1,144.8c0-10.4,5.4-19.3,12.7-22.2v-2.4H89.2v49.6h81.5V167C163.4,164.1,158.1,155.2,158.1,144.8Z"/><path class="i" d="M137.9,155.9l-3.9-9.1a2.366,2.366,0,0,1,.7-2.7,7.78,7.78,0,1,0-10.9-1.5,5.356,5.356,0,0,0,1.5,1.5,2.186,2.186,0,0,1,.7,2.6l-3.9,9.1a2.421,2.421,0,0,0,1.3,3.2,2.958,2.958,0,0,0,1,.2h11.3a2.433,2.433,0,0,0,2.4-2.4,2.92,2.92,0,0,0-.2-.9Z"/><path class="f" d="M124.2,150.9h34.5a28.353,28.353,0,0,1,0-12.3H122.2a7.976,7.976,0,0,0,3.1,5.6,2.186,2.186,0,0,1,.7,2.6Z"/><path class="f" d="M193.7,135.9a4.115,4.115,0,0,1-1.9-2c-3-7.3-9-12.3-15.8-12.3-9.9,0-18,10.4-18,23.2s8,23.2,18,23.2c6.9,0,12.8-5,15.8-12.3a3.4,3.4,0,0,1,1.9-2,9.861,9.861,0,0,0,4.9-13,9.56,9.56,0,0,0-4.9-4.8Zm-11.4,14.5a5.7,5.7,0,0,1-5.7-5.7,5.635,5.635,0,0,1,5.7-5.7,5.7,5.7,0,0,1,5.7,5.7A5.635,5.635,0,0,1,182.3,150.4Z"/><path d="M22.4,192.8H233.6a4.231,4.231,0,0,0,4.4-4V48.8a4.481,4.481,0,0,0-4.5-4.5H22.5A4.481,4.481,0,0,0,18,48.8v140a4.3,4.3,0,0,0,4.4,4ZM38.5,49.2H233v5.5H38.5ZM23,49.2H33.5v5.5H23Zm0,10.6H233v128H23Z"/><path d="M16.6,221.8H239.4A16.559,16.559,0,0,0,256,205.2a7.383,7.383,0,0,0-7.4-7.4h-4a13.62,13.62,0,0,0,3.4-9V48.8a14.51,14.51,0,0,0-14.5-14.5H22.5A14.51,14.51,0,0,0,8,48.8v140a13.62,13.62,0,0,0,3.4,9h-4A7.383,7.383,0,0,0,0,205.2,16.688,16.688,0,0,0,16.6,221.8ZM13,48.8a9.56,9.56,0,0,1,9.5-9.5h211a9.56,9.56,0,0,1,9.5,9.5v140a9.178,9.178,0,0,1-9.4,9H22.4a9.178,9.178,0,0,1-9.4-9Zm157.4,154a4.371,4.371,0,0,1-4.2,3.5H90.8a4.288,4.288,0,0,1-4.2-3.5Zm-163,0H81.5a9.252,9.252,0,0,0,9.2,8.5h75.4a9.252,9.252,0,0,0,9.2-8.5h73.1a2.433,2.433,0,0,1,2.4,2.4,11.608,11.608,0,0,1-11.6,11.6H16.6A11.608,11.608,0,0,1,5,205.2a2.369,2.369,0,0,1,2.4-2.4Z"/><path d="M194.7,133.6a1.057,1.057,0,0,1-.6-.7c-3.5-8.5-10.5-13.8-18.2-13.8a24.519,24.519,0,0,0-2.7.2V119a11.717,11.717,0,0,0-11-11.7v-10a32.25,32.25,0,1,0-64.5,0v10a11.717,11.717,0,0,0-11,11.7v52a11.822,11.822,0,0,0,11.8,11.8h63A11.822,11.822,0,0,0,173.3,171v-.7a12.287,12.287,0,0,0,2.7.2c7.7,0,14.6-5.3,18.2-13.8a1.344,1.344,0,0,1,.6-.7,12.3,12.3,0,0,0,6.1-16.3,12.679,12.679,0,0,0-6.2-6.1Zm-92-36.3a27.3,27.3,0,0,1,54.6,0v9.9h-5.9V97.3a21.45,21.45,0,1,0-42.9-.1v10h-5.9Zm43.7,0v9.9H113.5V97.3a16.45,16.45,0,1,1,32.9,0ZM98.5,112.2h63a6.75,6.75,0,0,1,6.6,5.4H91.9a6.75,6.75,0,0,1,6.6-5.4Zm-6.8,10.5h73.8c-4.5,4.1-6.9,6.6-8.8,13.4H140.1a10.317,10.317,0,1,0-20.3,3.7,9.988,9.988,0,0,0,3.7,6.2l-3.8,8.9a4.954,4.954,0,0,0,2.6,6.5,4.333,4.333,0,0,0,1.9.4h11.3a4.908,4.908,0,0,0,4.9-4.9,4.058,4.058,0,0,0-.4-1.9l-.6-1.5h17.2a24.837,24.837,0,0,0,9.3,13.8H91.7Zm64.1,25.7H128c0-.1,2.1-3.8-1.2-6.3a5.73,5.73,0,0,1-1.1-1.1h30c-.1,1.2-.2,2.4-.2,3.7.1,1.3.1,2.5.3,3.7Zm-20.2,8.5H124.4l1.5-3.4h8.3ZM125,136.1a5.253,5.253,0,0,1,6.8-3.1,5.02,5.02,0,0,1,3.1,3.1Zm36.5,41.6h-63a6.741,6.741,0,0,1-6.6-5.5h76.3a6.931,6.931,0,0,1-6.7,5.5Zm31.2-26.3a6.255,6.255,0,0,0-3.1,3.3c-2.7,6.6-7.9,10.7-13.5,10.7-9.5,0-15.5-10.8-15.5-20.7,0-9.7,6-20.7,15.5-20.7,5.6,0,10.8,4.1,13.5,10.7a6.255,6.255,0,0,0,3.1,3.3,7.2,7.2,0,0,1,3.6,9.6,6.738,6.738,0,0,1-3.6,3.8Z"/><path d="M182.3,136.6a8.2,8.2,0,1,0,8.2,8.2A8.237,8.237,0,0,0,182.3,136.6Zm0,11.3a3.222,3.222,0,0,1-3.2-3.2,3.2,3.2,0,1,1,3.2,3.2Z"/><path d="M167.6,140a2.476,2.476,0,0,0-2.5,2.5V147a2.5,2.5,0,0,0,5,0v-4.5A2.476,2.476,0,0,0,167.6,140Z"/></g></svg>