<?xml version="1.0"?>
<svg xmlns="http://www.w3.org/2000/svg" xmlns:xlink="http://www.w3.org/1999/xlink" xmlns:svgjs="http://svgjs.com/svgjs" version="1.1" width="512" height="512" x="0" y="0" viewBox="0 0 331.6 331.6" style="enable-background:new 0 0 512 512" xml:space="preserve" class=""><g>
<path xmlns="http://www.w3.org/2000/svg" style="" d="M268,46.4c0,22-18,39.6-39.6,39.6H67.6C45.6,86,28,68,28,46.4l0,0c0-22,18-39.6,39.6-39.6H228  C250,6.8,268,24.4,268,46.4L268,46.4z" fill="#d5edfd" data-original="#62caef" class=""/>
<path xmlns="http://www.w3.org/2000/svg" style="" d="M269.6,148.4c0,22-17.6,39.6-39.6,39.6H69.2c-22,0-39.6-18-39.6-39.6l0,0c0-22,18-39.6,39.6-39.6  h160.4C251.6,108.4,269.6,126.4,269.6,148.4L269.6,148.4z" fill="#d5edfd" data-original="#62caef" class=""/>
<path xmlns="http://www.w3.org/2000/svg" style="" d="M208.8,290H66c-22,0-39.6-18-39.6-39.6l0,0c0-22,18-39.6,39.6-39.6h160.4c0,0,40,1.2,40,26.4  c0,25.2,0,53.2,0,53.2h-57.6" fill="#d5edfd" data-original="#62caef" class=""/>
<path xmlns="http://www.w3.org/2000/svg" style="" d="M305.6,242.8v66.4c0,8.8-7.2,16-16,16h-64.8c-8.8,0-16-7.2-16-16v-66.4H305.6z" fill="#eb5c40" data-original="#fdc028" class=""/>
<circle xmlns="http://www.w3.org/2000/svg" style="" cx="257.2" cy="274.8" r="10.8" fill="#d5edfd" data-original="#fdfdfd" class=""/>
<g xmlns="http://www.w3.org/2000/svg">
	<path style="" d="M67.6,92.8H228c25.6,0,46.4-20.8,46.4-46.4S253.6,0,228,0H67.6C42,0,21.2,20.8,21.2,46.4   C21.6,72,42,92.8,67.6,92.8z M67.6,13.2H228c18.4,0,33.2,14.8,33.2,33.2S246.4,79.6,228,79.6H67.6c-18.4,0-33.2-14.8-33.2-33.2   C34.4,28,49.2,13.2,67.6,13.2z" fill="#0069b3" data-original="#231f20" class=""/>
	<path style="" d="M224.8,331.6h64.8c12.4,0,22.4-10,22.4-22.4v-66.4c0-3.6-2.8-6.4-6.4-6.4h-12.8v-20.8   c0-17.6-13.6-32-31.2-33.6c8.8-8.4,14.4-20.4,14.4-33.6c0-25.6-20.8-46.4-46.4-46.4H69.2c-25.6,0-46.4,20.8-46.4,46.4   s20.8,46.4,46.4,46.4h160.4c-2.4,2.8-4,6-5.6,9.2H66c-25.6,0-46.4,20.8-46.4,46.4s20.8,46.4,46.4,46.4h136.4V310   C202.4,321.6,212.4,331.6,224.8,331.6z M299.2,309.6c0,5.2-4.4,9.6-9.6,9.6h-64.8c-5.2,0-9.2-4.4-9.2-9.6v-60h83.6L299.2,309.6   L299.2,309.6z M234.8,216.8h0.4c0.8,0,21.6,0.8,25.2,19.6h-26v-19.6H234.8z M279.6,215.6v20.8H274c-3.2-22.8-22.4-31.2-35.2-32.4   c4-5.6,10.8-9.6,18.8-9.6C269.6,194.4,279.6,204,279.6,215.6z M36,148.4c0-18.4,14.8-33.2,33.2-33.2h160.4   c18.4,0,33.2,14.8,33.2,33.2s-14.8,33.2-33.2,33.2H69.2C50.8,181.6,36,166.8,36,148.4z M66,283.2c-18.4,0-33.2-14.8-33.2-33.2   c0-18.4,14.8-33.2,33.2-33.2h156v19.6h-12.8c-3.6,0-6.4,2.8-6.4,6.4v40.4L66,283.2L66,283.2z" fill="#0069b3" data-original="#231f20" class=""/>
	<path style="" d="M257.2,255.6c-10.4,0-19.2,8.4-19.2,19.2c0,8.4,5.2,15.2,12.8,18v12c0,3.6,2.8,6.4,6.4,6.4   s6.4-2.8,6.4-6.4v-12c7.2-2.8,12.8-9.6,12.8-18C276.4,264,268,255.6,257.2,255.6z M257.2,268.4c3.6,0,6.4,2.8,6.4,6.4   s-2.8,6.4-6.4,6.4s-6.4-2.8-6.4-6.4C251.2,271.2,254,268.4,257.2,268.4z" fill="#0069b3" data-original="#231f20" class=""/>
	<circle style="" cx="220.4" cy="46.4" r="14.8" fill="#0069b3" data-original="#231f20" class=""/>
	<circle style="" cx="223.6" cy="148.4" r="14.8" fill="#0069b3" data-original="#231f20" class=""/>
</g>
<g xmlns="http://www.w3.org/2000/svg">
</g>
<g xmlns="http://www.w3.org/2000/svg">
</g>
<g xmlns="http://www.w3.org/2000/svg">
</g>
<g xmlns="http://www.w3.org/2000/svg">
</g>
<g xmlns="http://www.w3.org/2000/svg">
</g>
<g xmlns="http://www.w3.org/2000/svg">
</g>
<g xmlns="http://www.w3.org/2000/svg">
</g>
<g xmlns="http://www.w3.org/2000/svg">
</g>
<g xmlns="http://www.w3.org/2000/svg">
</g>
<g xmlns="http://www.w3.org/2000/svg">
</g>
<g xmlns="http://www.w3.org/2000/svg">
</g>
<g xmlns="http://www.w3.org/2000/svg">
</g>
<g xmlns="http://www.w3.org/2000/svg">
</g>
<g xmlns="http://www.w3.org/2000/svg">
</g>
<g xmlns="http://www.w3.org/2000/svg">
</g>
</g></svg>
