<?xml version="1.0" encoding="UTF-8"?>
<svg xmlns="http://www.w3.org/2000/svg" xmlns:xlink="http://www.w3.org/1999/xlink" width="512pt" height="512pt" viewBox="0 0 512 512" version="1.1">
<defs>
<linearGradient id="linear0" gradientUnits="userSpaceOnUse" x1="53.80106" y1="10.74463" x2="53.80106" y2="163.639191" gradientTransform="matrix(2.976744,0,0,2.976744,0,0)">
<stop offset="0" style="stop-color:rgb(0%,77.64706%,100%);stop-opacity:1;"/>
<stop offset="1" style="stop-color:rgb(0%,44.705883%,100%);stop-opacity:1;"/>
</linearGradient>
<linearGradient id="linear1" gradientUnits="userSpaceOnUse" x1="62.737" y1="10.74463" x2="62.737" y2="163.639191" gradientTransform="matrix(2.976744,0,0,2.976744,0,0)">
<stop offset="0" style="stop-color:rgb(0%,77.64706%,100%);stop-opacity:1;"/>
<stop offset="1" style="stop-color:rgb(0%,44.705883%,100%);stop-opacity:1;"/>
</linearGradient>
<linearGradient id="linear2" gradientUnits="userSpaceOnUse" x1="71.672943" y1="10.74463" x2="71.672943" y2="163.639191" gradientTransform="matrix(2.976744,0,0,2.976744,0,0)">
<stop offset="0" style="stop-color:rgb(0%,77.64706%,100%);stop-opacity:1;"/>
<stop offset="1" style="stop-color:rgb(0%,44.705883%,100%);stop-opacity:1;"/>
</linearGradient>
<linearGradient id="linear3" gradientUnits="userSpaceOnUse" x1="86" y1="10.74463" x2="86" y2="163.639191" gradientTransform="matrix(2.976744,0,0,2.976744,0,0)">
<stop offset="0" style="stop-color:rgb(0%,77.64706%,100%);stop-opacity:1;"/>
<stop offset="1" style="stop-color:rgb(0%,44.705883%,100%);stop-opacity:1;"/>
</linearGradient>
<linearGradient id="linear4" gradientUnits="userSpaceOnUse" x1="109.652687" y1="10.74463" x2="109.652687" y2="163.639191" gradientTransform="matrix(2.976744,0,0,2.976744,0,0)">
<stop offset="0" style="stop-color:rgb(0%,77.64706%,100%);stop-opacity:1;"/>
<stop offset="1" style="stop-color:rgb(0%,44.705883%,100%);stop-opacity:1;"/>
</linearGradient>
<linearGradient id="linear5" gradientUnits="userSpaceOnUse" x1="109.658058" y1="50.38525" x2="109.658058" y2="76.666313" gradientTransform="matrix(2.976744,0,0,2.976744,0,0)">
<stop offset="0" style="stop-color:rgb(43.921569%,87.450981%,100%);stop-opacity:1;"/>
<stop offset="1" style="stop-color:rgb(43.921569%,68.627453%,100%);stop-opacity:1;"/>
</linearGradient>
</defs>
<g id="surface32259921">
<path style=" stroke:none;fill-rule:nonzero;fill:url(#linear0);" d="M 141.183594 410.71875 L 167.800781 437.320312 L 179.113281 426.007812 L 152.496094 399.40625 Z M 141.183594 410.71875 "/>
<path style=" stroke:none;fill-rule:nonzero;fill:url(#linear1);" d="M 167.800781 384.113281 L 194.398438 410.71875 L 205.710938 399.40625 L 179.113281 372.800781 Z M 167.800781 384.113281 "/>
<path style=" stroke:none;fill-rule:nonzero;fill:url(#linear2);" d="M 194.398438 357.503906 L 221 384.113281 L 232.3125 372.800781 L 205.710938 346.191406 Z M 194.398438 357.503906 "/>
<path style=" stroke:none;fill-rule:nonzero;fill:url(#linear3);" d="M 445.144531 146.671875 L 365.328125 66.855469 C 340.207031 41.742188 299.34375 41.710938 274.207031 66.855469 L 207.695312 133.359375 C 182.566406 158.488281 182.566406 199.359375 207.695312 224.488281 L 215.34375 232.136719 L 61.382812 386.105469 C 52.769531 394.71875 48.015625 406.183594 48.015625 418.359375 C 48.015625 430.542969 52.769531 442.007812 61.382812 450.617188 C 69.992188 459.230469 81.457031 463.984375 93.640625 463.984375 C 105.816406 463.984375 117.28125 459.230469 125.894531 450.617188 L 139.199219 437.320312 L 127.886719 426.007812 L 114.582031 439.304688 C 103.398438 450.503906 83.878906 450.488281 72.695312 439.304688 C 67.105469 433.710938 64.015625 426.273438 64.015625 418.359375 C 64.015625 410.457031 67.105469 403.007812 72.695312 397.414062 L 226.65625 243.449219 L 241.953125 258.742188 L 101.28125 399.40625 L 112.59375 410.71875 L 253.257812 270.054688 L 268.550781 285.351562 L 221 332.894531 L 232.3125 344.207031 L 279.863281 296.664062 L 287.511719 304.3125 C 300.070312 316.871094 316.574219 323.152344 333.070312 323.152344 C 349.566406 323.152344 366.070312 316.871094 378.632812 304.3125 L 445.136719 237.800781 C 470.265625 212.671875 470.265625 171.792969 445.144531 146.671875 Z M 433.832031 226.480469 L 367.328125 292.992188 C 348.441406 311.878906 317.71875 311.878906 298.824219 292.992188 L 219.007812 213.175781 C 200.128906 194.296875 200.128906 163.558594 219.007812 144.671875 L 285.519531 78.167969 C 294.96875 68.726562 307.359375 64 319.761719 64 C 332.167969 64 344.566406 68.726562 354.007812 78.167969 L 433.824219 157.984375 C 452.710938 176.863281 452.710938 207.59375 433.832031 226.480469 Z M 433.832031 226.480469 "/>
<path style=" stroke:none;fill-rule:nonzero;fill:url(#linear4);" d="M 338.726562 93.464844 C 328.28125 83.023438 311.273438 83.007812 300.816406 93.464844 L 234.3125 159.96875 C 229.238281 165.03125 226.457031 171.769531 226.457031 178.929688 C 226.457031 186.089844 229.257812 192.816406 234.3125 197.878906 L 314.128906 277.695312 C 319.191406 282.761719 325.921875 285.550781 333.078125 285.550781 C 340.238281 285.550781 346.976562 282.761719 352.039062 277.695312 L 418.542969 211.191406 C 429 200.734375 429 183.726562 418.542969 173.28125 Z M 407.222656 199.871094 L 340.71875 266.375 C 336.632812 270.464844 329.535156 270.480469 325.433594 266.375 L 245.617188 186.558594 C 243.566406 184.511719 242.449219 181.800781 242.449219 178.921875 C 242.449219 176.03125 243.574219 173.320312 245.617188 171.273438 L 312.121094 104.769531 C 314.230469 102.65625 316.992188 101.601562 319.769531 101.601562 C 322.535156 101.601562 325.296875 102.65625 327.40625 104.769531 L 407.222656 184.585938 C 411.441406 188.808594 411.441406 195.65625 407.222656 199.871094 Z M 407.222656 199.871094 "/>
<path style=" stroke:none;fill-rule:nonzero;fill:url(#linear5);" d="M 366.328125 198.878906 L 339.726562 225.480469 C 336.054688 229.152344 330.097656 229.152344 326.425781 225.480469 L 286.519531 185.574219 C 282.847656 181.902344 282.847656 175.945312 286.519531 172.273438 L 313.121094 145.671875 C 316.792969 142 322.753906 142 326.425781 145.671875 L 366.328125 185.574219 C 370 189.257812 370 195.207031 366.328125 198.878906 Z M 366.328125 198.878906 "/>
</g>
</svg>
