<?xml version="1.0"?>
<svg xmlns="http://www.w3.org/2000/svg" xmlns:xlink="http://www.w3.org/1999/xlink" xmlns:svgjs="http://svgjs.com/svgjs" version="1.1" width="512" height="512" x="0" y="0" viewBox="0 0 512 512" style="enable-background:new 0 0 512 512" xml:space="preserve" class=""><g><path xmlns="http://www.w3.org/2000/svg" d="m355.11 92.45v71.57a28.449 28.449 0 0 1 -28.45 28.46h-141.32a28.449 28.449 0 0 1 -28.45-28.46v-71.57a56.894 56.894 0 0 1 56.9-56.9h84.42a56.894 56.894 0 0 1 56.9 56.9z" fill="#eb5c40" data-original="#00efd1" style="" class=""/><path xmlns="http://www.w3.org/2000/svg" d="m264.95 286.83v19.96l26.43 21.85-26.43 32.74 26.43 32.52-41.19 47.64-29.57-39.42v-209.09-.55h68.63v.55l.95 69.71-25.25 20.15z" fill="#0069b3" data-original="#fedb41" style="" class=""/><g xmlns="http://www.w3.org/2000/svg" fill="#00acea"><path d="m403.97 345.3h-121.14v-12h121.09z" fill="#0069b3" data-original="#00acea" style="" class=""/><path d="m399.01 460.38h-10.23a27.527 27.527 0 0 1 -27.49-27.5v-13.29a15.517 15.517 0 0 0 -15.5-15.5h-57.96v-12h57.96a27.532 27.532 0 0 1 27.5 27.5v13.29a15.513 15.513 0 0 0 15.49 15.5h10.18z" fill="#0069b3" data-original="#00acea" style="" class=""/><path d="m345.79 292.83h-80.96v-12h80.96a15.513 15.513 0 0 0 15.5-15.49v-10.8a27.527 27.527 0 0 1 27.49-27.5h10.18l.05 12h-10.23a15.513 15.513 0 0 0 -15.49 15.5v10.8a27.527 27.527 0 0 1 -27.5 27.49z" fill="#0069b3" data-original="#00acea" style="" class=""/><path d="m220.17 345.3h-112.09l-.05-12h112.14z" fill="#0069b3" data-original="#00acea" style="" class=""/><path d="m123.22 460.38h-10.18l-.05-12h10.23a15.513 15.513 0 0 0 15.49-15.5v-13.29a27.532 27.532 0 0 1 27.5-27.5h53.96v12h-53.96a15.517 15.517 0 0 0 -15.5 15.5v13.29a27.527 27.527 0 0 1 -27.49 27.5z" fill="#0069b3" data-original="#00acea" style="" class=""/><path d="m220.17 292.83h-53.96a27.527 27.527 0 0 1 -27.5-27.49v-10.8a15.513 15.513 0 0 0 -15.49-15.5h-10.18l-.05-12h10.23a27.527 27.527 0 0 1 27.49 27.5v10.8a15.513 15.513 0 0 0 15.5 15.49h53.96z" fill="#0069b3" data-original="#00acea" style="" class=""/></g><path xmlns="http://www.w3.org/2000/svg" d="m406.147 319.448a28.066 28.066 0 0 0 0 39.7 28.08 28.08 0 1 0 0-39.707z" fill="#0069b3" data-original="#f4b844" style="" class=""/><path xmlns="http://www.w3.org/2000/svg" d="m401.188 434.526a28.083 28.083 0 1 0 39.706 0 27.9 27.9 0 0 0 -39.707.001z" fill="#0069b3" data-original="#f4b844" style="" class=""/><path xmlns="http://www.w3.org/2000/svg" d="m421.04 261.123a28.094 28.094 0 1 0 -19.855-8.232 27.884 27.884 0 0 0 19.855 8.232z" fill="#0069b3" data-original="#f4b844" style="" class=""/><path xmlns="http://www.w3.org/2000/svg" d="m86 367.357a28.011 28.011 0 0 0 19.856-8.2 28.134 28.134 0 1 0 -19.856 8.2z" fill="#0069b3" data-original="#f4b844" style="" class=""/><path xmlns="http://www.w3.org/2000/svg" d="m110.812 434.526a28.066 28.066 0 1 0 8.228 19.854 28.109 28.109 0 0 0 -8.228-19.854z" fill="#0069b3" data-original="#f4b844" style="" class=""/><path xmlns="http://www.w3.org/2000/svg" d="m71.109 213.185a28.081 28.081 0 1 0 39.7 0 27.88 27.88 0 0 0 -39.7 0z" fill="#0069b3" data-original="#f4b844" style="" class=""/><path xmlns="http://www.w3.org/2000/svg" d="m308.64 103.84v18.49h-105.28v-18.49a18.966 18.966 0 0 1 18.97-18.97h67.34a18.966 18.966 0 0 1 18.97 18.97z" fill="#0069b3" data-original="#00acea" style="" class=""/></g></svg>
