<?xml version="1.0"?>
<svg xmlns="http://www.w3.org/2000/svg" xmlns:xlink="http://www.w3.org/1999/xlink" xmlns:svgjs="http://svgjs.com/svgjs" version="1.1" width="512" height="512" x="0" y="0" viewBox="0 0 64 64" style="enable-background:new 0 0 512 512" xml:space="preserve" class=""><g><path xmlns="http://www.w3.org/2000/svg" d="m7 3h50c2.2 0 4 1.8 4 4v36c0 2.2-1.8 4-4 4h-50c-2.2 0-4-1.8-4-4v-36c0-2.2 1.8-4 4-4z" fill="#d5edfd" data-original="#e3dfda" style="" class=""/><path xmlns="http://www.w3.org/2000/svg" d="m21 57h22c1.1 0 2 .9 2 2 0 1.1-.9 2-2 2h-22c-1.1 0-2-.9-2-2 0-1.1.9-2 2-2z" fill="#0069b3" data-original="#999896" style="" class=""/><path xmlns="http://www.w3.org/2000/svg" d="m3 41h58v4c0 1.1-.9 2-2 2h-54c-1.1 0-2-.9-2-2z" fill="#0069b3" data-original="#a6a4a2" style="" class=""/><path xmlns="http://www.w3.org/2000/svg" d="m38 47h-12l-2 10h16z" fill="#055690" data-original="#c9c6c2" style="" class=""/><path xmlns="http://www.w3.org/2000/svg" d="m32 38c-4.5 0-8-7-8-16s3.5-16 8-16 8 7 8 16-3.5 16-8 16zm0-30c-2.8 0-6 5.8-6 14s3.2 14 6 14 6-5.8 6-14-3.2-14-6-14z" fill="#0069b3" data-original="#143652" style="" class=""/><path xmlns="http://www.w3.org/2000/svg" d="m22 33c-.9 0-1.8-.1-2.7-.3-1.2-.3-2.2-1-2.8-2.1-2.1-3.9 3-10.4 11.8-15.3 6.2-3.4 12.7-5 16.4-3.9 1.2.3 2.2 1 2.8 2.1 2.1 3.9-3 10.4-11.8 15.3-4.9 2.7-9.9 4.2-13.7 4.2zm19.9-20c-3.3 0-8.1 1.5-12.7 4-8.1 4.5-12.3 10.2-11 12.6.4.6 1 1 1.6 1.1 3.2.9 9.1-.6 14.9-3.7 8.1-4.5 12.3-10.2 11-12.6-.4-.6-1-1-1.6-1.1-.7-.2-1.4-.3-2.2-.3z" fill="#0069b3" data-original="#1b486e" style="" class=""/><path xmlns="http://www.w3.org/2000/svg" d="m42 33c-3.7 0-8.8-1.5-13.7-4.2-8.8-4.9-13.9-11.5-11.8-15.3.6-1.1 1.6-1.8 2.8-2.1 3.7-1.1 10.1.4 16.4 3.9 8.8 4.9 13.9 11.5 11.8 15.3-.6 1.1-1.6 1.8-2.8 2.1-.9.2-1.8.3-2.7.3zm-19.9-20c-.7 0-1.5.1-2.2.3-.7.1-1.3.6-1.6 1.1-1.3 2.4 2.9 8.1 11 12.6 5.7 3.1 11.7 4.6 14.9 3.7.7-.1 1.3-.6 1.6-1.1 1.3-2.4-2.9-8.1-11-12.6-4.7-2.5-9.4-4-12.7-4z" fill="#215987" data-original="#215987" style="" class=""/><circle xmlns="http://www.w3.org/2000/svg" cx="32" cy="22" fill="#eb5b3f" r="2" data-original="#06c15a" style="" class=""/><g xmlns="http://www.w3.org/2000/svg" fill="#f4c675"><path d="m53 7h2v2h-2z" fill="#d5edfd" data-original="#f4c675" style="" class=""/><path d="m55 9h2v2h-2z" fill="#d5edfd" data-original="#f4c675" style="" class=""/><path d="m53 11h2v2h-2z" fill="#d5edfd" data-original="#f4c675" style="" class=""/><path d="m51 9h2v2h-2z" fill="#d5edfd" data-original="#f4c675" style="" class=""/><path d="m11 31h2v2h-2z" fill="#d5edfd" data-original="#f4c675" style="" class=""/><path d="m13 33h2v2h-2z" fill="#d5edfd" data-original="#f4c675" style="" class=""/><path d="m11 35h2v2h-2z" fill="#d5edfd" data-original="#f4c675" style="" class=""/><path d="m9 33h2v2h-2z" fill="#d5edfd" data-original="#f4c675" style="" class=""/><path d="m51 19h2v2h-2z" fill="#d5edfd" data-original="#f4c675" style="" class=""/><path d="m53 21h2v2h-2z" fill="#d5edfd" data-original="#f4c675" style="" class=""/><path d="m51 23h2v2h-2z" fill="#d5edfd" data-original="#f4c675" style="" class=""/><path d="m49 21h2v2h-2z" fill="#d5edfd" data-original="#f4c675" style="" class=""/><path d="m12 9h2v2h-2z" fill="#d5edfd" data-original="#f4c675" style="" class=""/><path d="m7 18h2v2h-2z" fill="#d5edfd" data-original="#f4c675" style="" class=""/><path d="m49 35h2v2h-2z" fill="#d5edfd" data-original="#f4c675" style="" class=""/></g></g></svg>
