<?xml version="1.0"?>
<svg xmlns="http://www.w3.org/2000/svg" xmlns:xlink="http://www.w3.org/1999/xlink" xmlns:svgjs="http://svgjs.com/svgjs" version="1.1" width="512" height="512" x="0" y="0" viewBox="0 0 512 512" style="enable-background:new 0 0 512 512" xml:space="preserve" class=""><g><path xmlns="http://www.w3.org/2000/svg" d="m386.960938 511.820312h-369.027344c-9.90625 0-17.933594-8.027343-17.933594-17.929687v-475.957031c0-9.90625 8.027344-17.933594 17.933594-17.933594h369.027344c9.902343 0 17.933593 8.027344 17.933593 17.933594v475.957031c-.003906 9.902344-8.03125 17.929687-17.933593 17.929687zm0 0" fill="#d5edfd" data-original="#fff5f5" style="" class=""/><path xmlns="http://www.w3.org/2000/svg" d="m404.886719 17.929688v475.964843c0 9.902344-8.027344 17.925781-17.925781 17.925781h-26.566407c9.902344 0 17.9375-8.023437 17.9375-17.925781v-475.964843c0-9.902344-8.035156-17.929688-17.9375-17.929688h26.566407c9.898437 0 17.925781 8.027344 17.925781 17.929688zm0 0" fill="#b9daf0" data-original="#efe2dd" style="" class=""/><path xmlns="http://www.w3.org/2000/svg" d="m352.578125 90.78125c0 23.324219-18.90625 42.234375-42.234375 42.234375-23.324219 0-42.234375-18.910156-42.234375-42.234375 0-23.328125 18.910156-42.234375 42.234375-42.234375 23.328125 0 42.234375 18.90625 42.234375 42.234375zm0 0" fill="#ea4444" data-original="#ea4444" style="" class=""/><path xmlns="http://www.w3.org/2000/svg" d="m352.574219 90.777344c0 23.324218-18.902344 42.238281-42.222657 42.238281-12.304687 0-23.367187-5.25-31.09375-13.640625 4.277344 1.460938 8.875 2.246094 13.652344 2.246094 23.324219 0 42.234375-18.910156 42.234375-42.234375 0-11.03125-4.226562-21.078125-11.144531-28.597657 16.621094 5.6875 28.574219 21.441407 28.574219 39.988282zm0 0" fill="#d93131" data-original="#d93131" style="" class=""/><g xmlns="http://www.w3.org/2000/svg" fill="#ffb541"><path d="m225.253906 64.074219h-20.300781c-4.144531 0-7.5-3.355469-7.5-7.5 0-4.140625 3.355469-7.5 7.5-7.5h20.300781c4.144532 0 7.5 3.359375 7.5 7.5 0 4.144531-3.359375 7.5-7.5 7.5zm0 0" fill="#0069b3" data-original="#ffb541" style="" class=""/><path d="m154.925781 64.074219h-102.613281c-4.140625 0-7.5-3.355469-7.5-7.5 0-4.140625 3.359375-7.5 7.5-7.5h102.613281c4.140625 0 7.5 3.359375 7.5 7.5 0 4.144531-3.359375 7.5-7.5 7.5zm0 0" fill="#0069b3" data-original="#ffb541" style="" class=""/><path d="m78.777344 132.484375h-26.464844c-4.140625 0-7.5-3.359375-7.5-7.5 0-4.144531 3.359375-7.5 7.5-7.5h26.464844c4.144531 0 7.5 3.355469 7.5 7.5 0 4.140625-3.359375 7.5-7.5 7.5zm0 0" fill="#0069b3" data-original="#ffb541" style="" class=""/><path d="m145.535156 132.484375h-16.730468c-4.144532 0-7.5-3.359375-7.5-7.5 0-4.144531 3.355468-7.5 7.5-7.5h16.730468c4.140625 0 7.5 3.355469 7.5 7.5 0 4.140625-3.359375 7.5-7.5 7.5zm0 0" fill="#0069b3" data-original="#ffb541" style="" class=""/><path d="m225.253906 98.28125h-172.941406c-4.140625 0-7.5-3.359375-7.5-7.5 0-4.144531 3.359375-7.5 7.5-7.5h172.941406c4.144532 0 7.5 3.355469 7.5 7.5 0 4.140625-3.359375 7.5-7.5 7.5zm0 0" fill="#0069b3" data-original="#ffb541" style="" class=""/></g><path xmlns="http://www.w3.org/2000/svg" d="m332.335938 218.742188h-259.78125c-11.179688 0-20.242188-9.0625-20.242188-20.242188s9.0625-20.246094 20.242188-20.246094h259.78125c11.179687 0 20.242187 9.0625 20.242187 20.246094 0 11.179688-9.0625 20.242188-20.242187 20.242188zm0 0" fill="#0069b3" data-original="#87c080" style="" class=""/><path xmlns="http://www.w3.org/2000/svg" d="m332.335938 289.578125h-259.78125c-11.179688 0-20.242188-9.0625-20.242188-20.242187 0-11.179688 9.0625-20.246094 20.242188-20.246094h259.78125c11.179687 0 20.242187 9.0625 20.242187 20.246094 0 11.179687-9.0625 20.242187-20.242187 20.242187zm0 0" fill="#0069b3" data-original="#87c080" style="" class=""/><path xmlns="http://www.w3.org/2000/svg" d="m332.335938 360.414062h-259.78125c-11.179688 0-20.242188-9.0625-20.242188-20.242187s9.0625-20.242187 20.242188-20.242187h259.78125c11.179687 0 20.242187 9.0625 20.242187 20.242187s-9.0625 20.242187-20.242187 20.242187zm0 0" fill="#0069b3" data-original="#87c080" style="" class=""/><path xmlns="http://www.w3.org/2000/svg" d="m254.785156 431.253906h-182.230468c-11.179688 0-20.242188-9.066406-20.242188-20.246094 0-11.179687 9.0625-20.242187 20.242188-20.242187h182.230468c11.183594 0 20.246094 9.0625 20.246094 20.242187 0 11.179688-9.0625 20.246094-20.246094 20.246094zm0 0" fill="#0069b3" data-original="#87c080" style="" class=""/><path xmlns="http://www.w3.org/2000/svg" d="m352.574219 198.503906c0 5.582032-2.265625 10.644532-5.921875 14.3125-3.667969 3.65625-8.730469 5.921875-14.3125 5.921875h-22.871094c5.59375 0 10.660156-2.265625 14.324219-5.921875 3.65625-3.667968 5.925781-8.730468 5.925781-14.3125 0-11.1875-9.0625-20.25-20.25-20.25h22.871094c11.171875 0 20.234375 9.0625 20.234375 20.25zm0 0" fill="#0060a4" data-original="#70b568" style="" class=""/><path xmlns="http://www.w3.org/2000/svg" d="m352.574219 269.335938c0 5.589843-2.265625 10.65625-5.921875 14.3125-3.667969 3.664062-8.730469 5.933593-14.3125 5.933593h-22.871094c5.59375 0 10.660156-2.269531 14.324219-5.933593 3.65625-3.65625 5.925781-8.722657 5.925781-14.3125 0-11.175782-9.0625-20.238282-20.25-20.238282h22.871094c11.171875 0 20.234375 9.058594 20.234375 20.238282zm0 0" fill="#0060a4" data-original="#70b568" style="" class=""/><path xmlns="http://www.w3.org/2000/svg" d="m352.574219 340.175781c0 5.59375-2.265625 10.644531-5.921875 14.3125-3.667969 3.65625-8.730469 5.921875-14.3125 5.921875h-22.871094c5.59375 0 10.660156-2.265625 14.324219-5.921875 3.65625-3.667969 5.925781-8.71875 5.925781-14.3125 0-11.1875-9.0625-20.25-20.25-20.25h22.871094c11.171875.003907 20.234375 9.0625 20.234375 20.25zm0 0" fill="#0060a4" data-original="#70b568" style="" class=""/><path xmlns="http://www.w3.org/2000/svg" d="m275.03125 411.007812c0 5.59375-2.265625 10.65625-5.921875 14.324219-3.667969 3.65625-8.730469 5.921875-14.324219 5.921875h-22.859375c5.59375 0 10.648438-2.265625 14.3125-5.921875 3.65625-3.667969 5.925781-8.730469 5.925781-14.324219 0-11.175781-9.0625-20.238281-20.238281-20.238281h22.855469c11.1875 0 20.25 9.0625 20.25 20.238281zm0 0" fill="#0060a4" data-original="#70b568" style="" class=""/><path xmlns="http://www.w3.org/2000/svg" d="m388.050781 286.917969c-8.371093 9.890625-11.660156 23.109375-8.898437 35.765625l13.058594 59.867187h55.21875l13.0625-59.867187c2.761718-12.65625-.527344-25.875-8.898438-35.765625-16.628906-19.644531-46.917969-19.644531-63.542969 0zm0 0" fill="#485e68" data-original="#b88a65" style="" class=""/><path xmlns="http://www.w3.org/2000/svg" d="m460.496094 322.691406-13.0625 59.863282h-19.078125l13.0625-59.863282c2.753906-12.667968-.527344-25.882812-8.898438-35.773437-6.046875-7.136719-13.898437-11.683594-22.234375-13.632813 3.136719-.734375 6.335938-1.097656 9.539063-1.097656 11.722656 0 23.457031 4.910156 31.773437 14.730469 8.367188 9.890625 11.652344 23.105469 8.898438 35.773437zm0 0" fill="#374e58" data-original="#a87a52" style="" class=""/><path xmlns="http://www.w3.org/2000/svg" d="m419.820312 465.359375h-69.140624l6.042968 26.828125c2.574219 11.421875 12.71875 19.535156 24.429688 19.535156h77.335937c11.710938 0 21.855469-8.113281 24.429688-19.535156l6.042969-26.828125zm0 0" fill="#0069b3" data-original="#ffb541" style="" class=""/><path xmlns="http://www.w3.org/2000/svg" d="m488.964844 465.359375-6.046875 26.824219c-2.570313 11.425781-12.71875 19.542968-24.433594 19.542968h-24.089844c11.714844 0 21.867188-8.117187 24.433594-19.542968l6.050781-26.824219zm0 0" fill="#0069b3" data-original="#ffa812" style="" class=""/><path xmlns="http://www.w3.org/2000/svg" d="m458.648438 418.964844h-77.652344v-33.496094c0-4.644531 3.765625-8.40625 8.40625-8.40625h60.835937c4.644531 0 8.40625 3.761719 8.40625 8.40625v33.496094zm0 0" fill="#efae3f" data-original="#7c8388" style="" class=""/><path xmlns="http://www.w3.org/2000/svg" d="m458.652344 385.472656v33.496094h-24.089844v-33.496094c0-4.652344-3.773438-8.410156-8.410156-8.410156h24.089844c4.640624 0 8.410156 3.757812 8.410156 8.410156zm0 0" fill="#e6a535" data-original="#6a7075" style="" class=""/><path xmlns="http://www.w3.org/2000/svg" d="m495.550781 467.417969h-151.457031c-9.085938 0-16.449219-7.363281-16.449219-16.449219v-19.675781c0-9.082031 7.363281-16.449219 16.449219-16.449219h151.457031c9.082031 0 16.445313 7.367188 16.445313 16.449219v19.675781c0 9.085938-7.363282 16.449219-16.445313 16.449219zm0 0" fill="#485e68" data-original="#b88a65" style="" class=""/><path xmlns="http://www.w3.org/2000/svg" d="m512 431.296875v19.675781c0 9.082032-7.363281 16.449219-16.445312 16.449219h-24.089844c9.082031 0 16.445312-7.367187 16.445312-16.449219v-19.675781c0-9.085937-7.363281-16.449219-16.445312-16.449219h24.089844c9.082031 0 16.445312 7.363282 16.445312 16.449219zm0 0" fill="#374e58" data-original="#a87a52" style="" class=""/></g></svg>
