<?xml version="1.0" encoding="UTF-8"?>
<svg width="500px" height="358px" viewBox="0 0 500 358" version="1.1" xmlns="http://www.w3.org/2000/svg" xmlns:xlink="http://www.w3.org/1999/xlink">
    <title>card</title>
    <g id="Page-1" stroke="none" stroke-width="1" fill="none" fill-rule="evenodd">
        <g id="Artboard" transform="translate(-815.000000, -535.000000)" fill-rule="nonzero">
            <g id="card" transform="translate(815.000000, 535.000000)">
                <path d="M436.8,82.84 L23.978,82.84 C13.509881,82.8477211 5.02572108,91.331881 5.018,101.8 L5.018,333.64 C5.02572108,344.108119 13.509881,352.592279 23.978,352.6 L436.8,352.6 C447.270861,352.6 455.76,344.110861 455.76,333.64 L455.76,101.8 C455.76,91.3291386 447.270861,82.84 436.8,82.84 L436.8,82.84 Z" id="Path" fill="#EB5C40"></path>
                <path d="M355.684,185.8 C341.562629,193.951244 323.627248,190.787618 313.146923,178.296874 C302.666597,165.80613 302.666597,147.59387 313.146923,135.103126 C323.627248,122.612382 341.562629,119.448756 355.684,127.6 C345.286614,133.601657 338.881321,144.694771 338.881321,156.7 C338.881321,168.705229 345.286614,179.798343 355.684,185.8 Z" id="Path" fill="#FC5D3D"></path>
                <path d="M372.484005,156.698 C372.490749,168.704335 366.08489,179.800198 355.684,185.798 C345.286614,179.796343 338.881321,168.703229 338.881321,156.698 C338.881321,144.692771 345.286614,133.599657 355.684,127.598 C366.08489,133.595802 372.490749,144.691665 372.484005,156.698 L372.484005,156.698 Z" id="Path" fill="#F0AB20"></path>
                <path d="M406.084,156.698 C406.068502,168.695609 399.661803,179.776099 389.271698,185.775147 C378.881593,191.774196 366.082259,191.782905 355.684,185.798 C366.081386,179.796343 372.486679,168.703229 372.486679,156.698 C372.486679,144.692771 366.081386,133.599657 355.684,127.598 C366.082259,121.613095 378.881593,121.621804 389.271698,127.620853 C399.661803,133.619901 406.068502,144.700391 406.084,156.698 L406.084,156.698 Z" id="Path" fill="#F9E5AF"></path>
                <rect id="Rectangle" fill="#F9E5AF" x="40.16" y="124.504" width="91.436" height="64.39" rx="9.084"></rect>
                <path d="M476.044,5.2179983 L63.224,5.2179983 C58.1976585,5.2179983 53.3777796,7.21760413 49.8254954,10.7736394 C46.2732112,14.3296747 44.2839932,19.1516602 44.2839932,24.178 L44.2839932,82.838 L436.783993,82.838 C441.815482,82.8342857 446.642246,84.8300201 450.201917,88.3859399 C453.761588,91.9418598 455.76241,96.7665171 455.764,101.798 L455.764,274.958 L476.044,274.958 C486.504273,274.958 494.984021,266.478273 494.984021,256.018 L494.984021,24.178 C494.991436,19.1506853 492.999005,14.3268465 489.446029,10.7701189 C485.893053,7.21339134 481.07132,5.2179983 476.044,5.2179983 Z" id="Path" fill="#AFAFAF"></path>
                <path d="M494.978,49.72 L494.978,105.18 L455.758,105.18 L455.758,101.8 C455.756896,91.3291386 447.268861,82.8411043 436.798,82.84 L44.278,82.84 L44.278,49.72 L494.978,49.72 Z" id="Path" fill="#4C4945"></path>
                <path d="M431.67,334.584 L336.342,334.584 C333.580576,334.584 331.342,332.345424 331.342,329.584 C331.342,326.822576 333.580576,324.584 336.342,324.584 L426.67,324.584 L426.67,112.914 C426.67,110.152576 428.908576,107.914 431.67,107.914 C434.431424,107.914 436.67,110.152576 436.67,112.914 L436.67,329.584 C436.67,332.345424 434.431424,334.584 431.67,334.584 L431.67,334.584 Z M316.342,334.584 L315.342,334.584 C312.580576,334.584 310.342,332.345424 310.342,329.584 C310.342,326.822576 312.580576,324.584 315.342,324.584 L316.342,324.584 C319.103424,324.584 321.342,326.822576 321.342,329.584 C321.342,332.345424 319.103424,334.584 316.342,334.584 L316.342,334.584 Z" id="Shape" fill="#FFD6CD"></path>
                <path d="M294.67,111.236 L288.16,111.236 C285.398576,111.236 283.16,108.997424 283.16,106.236 C283.16,103.474576 285.398576,101.236 288.16,101.236 L294.67,101.236 C297.431424,101.236 299.67,103.474576 299.67,106.236 C299.67,108.997424 297.431424,111.236 294.67,111.236 Z M268.16,111.236 L40.16,111.236 C37.3985763,111.236 35.16,108.997424 35.16,106.236 C35.16,103.474576 37.3985763,101.236 40.16,101.236 L268.16,101.236 C270.921424,101.236 273.16,103.474576 273.16,106.236 C273.16,108.997424 270.921424,111.236 268.16,111.236 Z" id="Shape" fill="#FFD6CD"></path>
                <path d="M464.76,32.468 L456.8,32.468 C454.038576,32.468 451.8,30.2294237 451.8,27.468 C451.8,24.7065763 454.038576,22.468 456.8,22.468 L464.766,22.468 C467.527424,22.468 469.766,24.7065763 469.766,27.468 C469.766,30.2294237 467.527424,32.468 464.766,32.468 L464.76,32.468 Z M436.794,32.468 L76.8,32.468 C74.0385763,32.468 71.8,30.2294237 71.8,27.468 C71.8,24.7065763 74.0385763,22.468 76.8,22.468 L436.8,22.468 C439.561424,22.468 441.8,24.7065763 441.8,27.468 C441.8,30.2294237 439.561424,32.468 436.8,32.468 L436.794,32.468 Z" id="Shape" fill="#EFEFEF"></path>
                <path d="M40.158,277.88 C37.3965763,277.88 35.158,280.118576 35.158,282.88 C35.158,285.641424 37.3965763,287.88 40.158,287.88 L58.358,287.88 C61.1194237,287.88 63.358,285.641424 63.358,282.88 C63.358,280.118576 61.1194237,277.88 58.358,277.88 L54.258,277.88 L54.258,255.58 C54.2544799,253.848139 53.3550025,252.24143 51.8804656,251.333083 C50.4059287,250.424735 48.566343,250.344121 47.018,251.12 L38.458,255.42 C35.9906153,256.652677 34.9874424,259.650562 36.216,262.12 C37.4955257,264.54599 40.4589946,265.533519 42.938,264.36 L44.258,263.7 L44.258,277.88 L40.158,277.88 Z" id="Path" fill="#000000"></path>
                <path d="M106.858,273.78 L106.858,264.68 C106.858,256.898308 100.549692,250.59 92.768,250.59 C84.9863079,250.59 78.678,256.898308 78.678,264.68 L78.678,273.78 C78.678,281.561692 84.9863079,287.87 92.768,287.87 C100.549692,287.87 106.858,281.561692 106.858,273.78 Z M88.678,273.78 L88.678,264.68 C88.678,262.421155 90.5091554,260.59 92.768,260.59 C95.0268446,260.59 96.858,262.421155 96.858,264.68 L96.858,273.78 C96.858,276.038845 95.0268446,277.87 92.768,277.87 C90.5091554,277.87 88.678,276.038845 88.678,273.78 Z" id="Shape" fill="#000000"></path>
                <path d="M136.278,250.58 C128.502708,250.600922 122.207885,256.904686 122.198,264.68 L122.198,273.78 C122.137551,278.853516 124.8096,283.567721 129.193596,286.122089 C133.577592,288.676458 138.996408,288.676458 143.380404,286.122089 C147.7644,283.567721 150.436449,278.853516 150.376,273.78 L150.376,264.68 C150.364987,256.898132 144.059866,250.592117 136.278,250.58 L136.278,250.58 Z M140.376,273.78 C140.376,275.244789 139.594545,276.59831 138.326,277.330704 C137.057456,278.063099 135.494544,278.063099 134.226,277.330704 C132.957455,276.59831 132.176,275.244789 132.176,273.78 L132.176,264.68 C132.176,263.215211 132.957455,261.86169 134.226,261.129296 C135.494544,260.396901 137.057456,260.396901 138.326,261.129296 C139.594545,261.86169 140.376,263.215211 140.376,264.68 L140.376,273.78 Z" id="Shape" fill="#000000"></path>
                <path d="M170.698,277.88 C167.936576,277.88 165.698,280.118576 165.698,282.88 C165.698,285.641424 167.936576,287.88 170.698,287.88 L188.898,287.88 C191.659424,287.88 193.898,285.641424 193.898,282.88 C193.898,280.118576 191.659424,277.88 188.898,277.88 L184.8,277.88 L184.8,255.58 C184.796135,253.848716 183.896928,252.242634 182.422993,251.334407 C180.949058,250.42618 179.110175,250.345071 177.562,251.12 L169.002,255.42 C167.818576,256.0135 166.919644,257.053124 166.503239,258.309843 C166.086833,259.566562 166.187118,260.93727 166.782,262.12 C168.046835,264.550883 171.015868,265.534652 173.482,264.34 L174.8,263.68 L174.8,277.88 L170.698,277.88 Z" id="Path" fill="#000000"></path>
                <path d="M237.418,273.78 L237.418,264.68 C237.288394,256.985363 231.013728,250.815495 223.318,250.815495 C215.622272,250.815495 209.347606,256.985363 209.218,264.68 L209.218,273.78 C209.347606,281.474637 215.622272,287.644505 223.318,287.644505 C231.013728,287.644505 237.288394,281.474637 237.418,273.78 L237.418,273.78 Z M219.218,273.78 L219.218,264.68 C219.287179,262.465474 221.102393,260.706078 223.318,260.706078 C225.533607,260.706078 227.348821,262.465474 227.418,264.68 L227.418,273.78 C227.348821,275.994526 225.533607,277.753922 223.318,277.753922 C221.102393,277.753922 219.287179,275.994526 219.218,273.78 L219.218,273.78 Z" id="Shape" fill="#000000"></path>
                <path d="M252.738,282.88 C252.745691,285.638232 254.979768,287.872309 257.738,287.88 L275.918,287.88 C278.679424,287.88 280.918,285.641424 280.918,282.88 C280.918,280.118576 278.679424,277.88 275.918,277.88 L271.818,277.88 L271.818,255.58 C271.81448,253.848139 270.915002,252.24143 269.440466,251.333083 C267.965929,250.424735 266.126343,250.344121 264.578,251.12 L256.018,255.42 C254.833071,256.011936 253.93264,257.051366 253.515694,258.308585 C253.098748,259.565804 253.199613,260.937305 253.796,262.12 C255.070991,264.552089 258.045332,265.534392 260.518,264.34 L261.818,263.68 L261.832,277.88 L257.738,277.88 C254.976576,277.88 252.738,280.118576 252.738,282.88 L252.738,282.88 Z" id="Path" fill="#000000"></path>
                <path d="M188.06,316.486 C188.06,319.247424 190.298576,321.486 193.06,321.486 L280.038,321.486 C282.799424,321.486 285.038,319.247424 285.038,316.486 C285.038,313.724576 282.799424,311.486 280.038,311.486 L193.06,311.486 C190.298576,311.486 188.06,313.724576 188.06,316.486 L188.06,316.486 Z" id="Path" fill="#000000"></path>
                <path d="M41.936,311.486 C39.1745763,311.486 36.936,313.724576 36.936,316.486 C36.936,319.247424 39.1745763,321.486 41.936,321.486 L163.12,321.486 C165.881424,321.486 168.12,319.247424 168.12,316.486 C168.12,313.724576 165.881424,311.486 163.12,311.486 L41.936,311.486 Z" id="Path" fill="#000000"></path>
                <path d="M315.338,278.3 C312.576576,278.3 310.338,280.538576 310.338,283.3 C310.338,286.061424 312.576576,288.3 315.338,288.3 L338.958,288.3 C341.719424,288.3 343.958,286.061424 343.958,283.3 C343.958,280.538576 341.719424,278.3 338.958,278.3 L315.338,278.3 Z" id="Path" fill="#000000"></path>
                <path d="M382.478,278.32 C380.619849,278.202304 378.850202,279.126815 377.885475,280.71926 C376.920749,282.311705 376.920749,284.308295 377.885475,285.90074 C378.850202,287.493185 380.619849,288.417696 382.478,288.3 L406.078,288.3 C407.936151,288.417696 409.705798,287.493185 410.670525,285.90074 C411.635251,284.308295 411.635251,282.311705 410.670525,280.71926 C409.705798,279.126815 407.936151,278.202304 406.078,278.32 L382.478,278.32 Z" id="Path" fill="#000000"></path>
                <path d="M362.478,251.56 L353.438,281.88 C352.714605,284.502612 354.220827,287.222307 356.827688,288.000556 C359.434549,288.778805 362.185241,287.329963 363.018,284.74 L372.058,254.4 C372.84133,251.760174 371.337342,248.984958 368.698,248.2 C366.057814,247.45931 363.30593,248.945858 362.478,251.56 L362.478,251.56 Z" id="Path" fill="#000000"></path>
                <path d="M39.284,24.178 L39.284,77.84 L23.978,77.84 C10.7543896,77.862021 0.0400210457,88.5763896 0.018,101.8 L0.018,139.2 C0.018,141.961424 2.25657625,144.2 5.018,144.2 C7.77942375,144.2 10.018,141.961424 10.018,139.2 L10.018,101.8 C10.0454264,94.1014939 16.2794939,87.8674264 23.978,87.84 L436.8,87.84 C444.496116,87.873945 450.726952,94.1038892 450.762,101.8 L450.762,333.64 C450.740024,341.341554 444.501557,347.579127 436.8,347.6 L23.978,347.6 C16.2735839,347.586789 10.0312114,341.344416 10.018,333.64 L10.018,179.2 C10.018,176.438576 7.77942375,174.2 5.018,174.2 C2.25657625,174.2 0.018,176.438576 0.018,179.2 L0.018,333.64 C0.0400210457,346.86361 10.7543896,357.577979 23.978,357.6 L436.8,357.6 C450.024391,357.57908 460.739976,346.86439 460.762,333.64 L460.762,279.958 L476.046,279.958 C489.261757,279.94367 499.97167,269.233757 499.986,256.018 L499.986,24.178 C499.977192,10.9567139 489.267274,0.237848851 476.046,0.218 L63.222,0.218 C50.001507,0.238950494 39.2928059,10.9574933 39.284,24.178 L39.284,24.178 Z M489.982,256.018 C489.973183,263.713194 483.737194,269.949183 476.042,269.958 L460.764,269.958 L460.764,110.178 L489.982,110.178 L489.982,256.018 Z M489.982,100.178 L460.708,100.178 C459.799423,87.6222915 449.372449,77.8856838 436.784,77.838 L49.284,77.838 L49.284,54.718 L489.982,54.718 L489.982,100.178 Z M489.982,24.178 L489.982,44.718 L49.284,44.718 L49.284,24.178 C49.284,16.4780549 55.5220697,10.2334367 63.222,10.218 L476.042,10.218 C483.742712,10.2323355 489.982,16.4772758 489.982,24.178 Z" id="Shape" fill="#000000"></path>
                <circle id="Oval" fill="#000000" cx="5.018" cy="159.2" r="5"></circle>
                <path d="M240.296,183.9 L179.8,183.9 C177.941849,183.782304 176.172202,184.706815 175.207475,186.29926 C174.242749,187.891705 174.242749,189.888295 175.207475,191.48074 C176.172202,193.073185 177.941849,193.997696 179.8,193.88 L240.3,193.88 C242.158151,193.997696 243.927798,193.073185 244.892525,191.48074 C245.857251,189.888295 245.857251,187.891705 244.892525,186.29926 C243.927798,184.706815 242.158151,183.782304 240.3,183.9 L240.296,183.9 Z" id="Path" fill="#000000"></path>
                <path d="M122.514,119.502 L49.242,119.502 C41.4676015,119.510819 35.1677154,125.8116 35.16,133.586 L35.16,179.81 C35.1677173,187.584075 41.467925,193.884283 49.242,193.892 L122.514,193.892 C130.288075,193.884283 136.588283,187.584075 136.596,179.81 L136.596,133.586 C136.588285,125.8116 130.288399,119.510819 122.514,119.502 L122.514,119.502 Z M45.16,133.586 C45.1622029,131.332163 46.9881641,129.505307 49.242,129.502 L60.976,129.502 L68.576,142.336 L45.16,142.336 L45.16,133.586 Z M60.976,183.892 L49.242,183.892 C46.9889438,183.888696 45.1633044,182.063056 45.16,179.81 L45.16,171.058 L68.576,171.058 L60.976,183.892 Z M71.8,161.058 L45.16,161.058 L45.16,152.336 L71.8,152.336 L71.8,161.058 Z M90.664,169.54 L99.164,183.892 L72.6,183.892 L81.1,169.54 C81.5562193,168.771141 81.7979451,167.894022 81.8,167 L81.8,146.4 C81.8005882,145.503634 81.5602,144.623592 81.104,143.852 L72.604,129.498 L99.164,129.498 L90.664,143.852 C90.2070998,144.623393 89.9660173,145.503448 89.966,146.4 L89.966,167 C89.9662155,167.893203 90.2051239,168.770121 90.658,169.54 L90.664,169.54 Z M126.6,179.81 C126.596696,182.063056 124.771056,183.888696 122.518,183.892 L110.78,183.892 L103.18,171.058 L126.6,171.058 L126.6,179.81 Z M126.6,161.058 L99.96,161.058 L99.96,152.336 L126.6,152.336 L126.6,161.058 Z M126.6,142.336 L103.18,142.336 L110.78,129.502 L122.514,129.502 C124.767836,129.505307 126.593797,131.332163 126.596,133.586 L126.6,142.336 Z" id="Shape" fill="#000000"></path>
                <path d="M355.682,121.952 C339.454913,114.100009 319.953794,118.525426 308.705365,132.612476 C297.456937,146.699525 297.456937,166.696475 308.705365,180.783524 C319.953794,194.870574 339.454913,199.295991 355.682,191.444 C371.909087,199.295991 391.410206,194.870574 402.658635,180.783524 C413.907063,166.696475 413.907063,146.699525 402.658635,132.612476 C391.410206,118.525426 371.909087,114.100009 355.682,121.952 L355.682,121.952 Z M310.282,156.698 C310.292921,147.917678 314.332201,139.627891 321.240327,134.208299 C328.148453,128.788708 337.16143,126.838684 345.692,128.918 C338.144129,136.188359 333.879654,146.217092 333.879654,156.697 C333.879654,167.176908 338.144129,177.205641 345.692,184.476 C337.161969,186.555339 328.14949,184.605539 321.241731,179.186319 C314.333972,173.767099 310.294903,165.477804 310.284,156.698 L310.282,156.698 Z M355.682,179.824 C348.26851,174.452691 343.879521,165.852823 343.879521,156.698 C343.879521,147.543177 348.26851,138.943309 355.682,133.572 C363.093126,138.944873 367.480255,147.544173 367.480255,156.698 C367.480255,165.851827 363.093126,174.451127 355.682,179.824 L355.682,179.824 Z M365.67,184.478 C373.216426,177.206443 377.479853,167.177699 377.479853,156.698 C377.479853,146.218301 373.216426,136.189557 365.67,128.918 C377.201147,126.095657 389.276992,130.690362 396.015501,140.464075 C402.75401,150.237789 402.75401,163.158211 396.015501,172.931925 C389.276992,182.705638 377.201147,187.300343 365.67,184.478 L365.67,184.478 Z" id="Shape" fill="#000000"></path>
            </g>
        </g>
    </g>
</svg>