<svg id="Layer_5" enable-background="new 0 0 64 64" height="512" viewBox="0 0 64 64" width="512" xmlns="http://www.w3.org/2000/svg"><g><g><g><path d="m18 31v4l-16-3v-4z" fill="#aab2bd"/></g><g><path d="m18 62h-16v-30l16 3z" fill="#ccd1d9"/></g><g><path d="m26 62h-12v-16h4 4 4v3.5 4 7z" fill="#fcd770"/></g><g><path d="m62 28v4l-16 3v-4z" fill="#b27946"/></g><g><path d="m46 35 16-3v30h-16z" fill="#cf9e76"/></g><g><path d="m46 46h4v16h-12v-1.5-7-4-3.5h4z" fill="#ccd1d9"/></g><g><path d="m40 26 .4 4h-16.8l.4-4h2 12z" fill="#ccd1d9"/></g><g><path d="m29.48 13.83-.74 2.59-4.74 1.58h-2v-6h2z" fill="#ff826e"/></g><g><path d="m42 12v6h-2l-4.74-1.58-.74-2.59 5.48-1.83z" fill="#ff826e"/></g><g><path d="m35.26 16.42 2.74 9.58h-12l2.74-9.58.74-2.59.52-1.83h2 2l.52 1.83z" fill="#fcd770"/></g><g><circle cx="32" cy="4" fill="#69d6f4" r="2"/></g></g><g><path d="m45 57h2v2h-2z"/><path d="m45 49h2v2h-2z"/><path d="m45 53h2v2h-2z"/><path d="m41 57h2v2h-2z"/><path d="m41 49h2v2h-2z"/><path d="m41 53h2v2h-2z"/><path d="m49 41h2v2h-2z"/><path d="m53 41h2v2h-2z"/><path d="m57 41h2v2h-2z"/><path d="m57 45h2v2h-2z"/><path d="m53 45h2v2h-2z"/><path d="m53 49h2v2h-2z"/><path d="m57 49h2v2h-2z"/><path d="m53 53h2v2h-2z"/><path d="m57 53h2v2h-2z"/><path d="m57 57h2v2h-2z"/><path d="m53 57h2v2h-2z"/><path d="m45 30.17v14.83h-2.095l-2-20h-2.151l-2.009-7.031 3.093 1.031h3.162v-8h-3.162l-4.642 1.547-.442-1.547h-1.754v-4.184c1.161-.414 2-1.514 2-2.816 0-1.654-1.346-3-3-3s-3 1.346-3 3c0 1.302.839 2.402 2 2.816v4.184h-1.754l-.442 1.547-4.642-1.547h-3.162v8h3.162l3.092-1.031-2.009 7.031h-2.151l-2 20h-2.094v-14.83l-18-3.375v36.205h62v-36.205zm-13-27.17c.552 0 1 .449 1 1s-.448 1-1 1-1-.449-1-1 .448-1 1-1zm29 26.205v1.965l-14 2.625v-1.965zm-12 31.795h-10v-14h10zm-24 0h-10v-14h10zm12-2.242-3.015-1.758 3.015-1.758zm0-5.833-5 2.917-5-2.917v-2.851l5-2.917 5 2.917zm-10 2.317 3.015 1.758-3.015 1.758zm5 2.916 4.872 2.842h-9.743zm5-13.158v2.759l-3.016-1.759 6.624-3.864.287 2.864zm-5-11.158-4.873-2.842h9.745zm7.569-2.099.692 6.918-6.276-3.661zm-9.554 3.257-6.276 3.661.692-6.918zm1.985 1.158 7.443 4.342-7.443 4.342-7.443-4.342zm8.162-23.158h.838v4h-.838l-4.083-1.361-.333-1.167zm-16.324 4h-.838v-4h.838l4.416 1.472-.333 1.167zm6.916-4h2.492l3.428 12h-9.348zm8.341 14 .2 2h-14.59l.2-2zm-15.703 15.136 6.624 3.864-3.016 1.759v-2.759h-3.895zm-6.392-10.306v1.965l-14-2.625v-1.965zm-14 1.375 14 2.625v9.17h-4v16h-10zm48 27.795v-16h-4v-9.17l14-2.625v27.795z"/><path d="m17 53h2v2h-2z"/><path d="m17 49h2v2h-2z"/><path d="m17 57h2v2h-2z"/><path d="m21 57h2v2h-2z"/><path d="m21 53h2v2h-2z"/><path d="m21 49h2v2h-2z"/><path d="m9 41h2v2h-2z"/><path d="m5 41h2v2h-2z"/><path d="m13 41h2v2h-2z"/><path d="m57 37h2v2h-2z"/><path d="m53 37h2v2h-2z"/><path d="m49 37h2v2h-2z"/><path d="m13 37h2v2h-2z"/><path d="m9 37h2v2h-2z"/><path d="m5 37h2v2h-2z"/><path d="m5 45h2v2h-2z"/><path d="m9 45h2v2h-2z"/><path d="m9 49h2v2h-2z"/><path d="m5 49h2v2h-2z"/><path d="m5 53h2v2h-2z"/><path d="m9 53h2v2h-2z"/><path d="m5 57h2v2h-2z"/><path d="m9 57h2v2h-2z"/><path d="m47.535 18.536c1.949-1.95 1.949-5.122 0-7.071l-1.414 1.414c1.17 1.17 1.17 3.073 0 4.243z"/><path d="m48.95 19.95 1.414 1.414c3.509-3.509 3.509-9.219 0-12.728l-1.414 1.414c2.73 2.73 2.73 7.17 0 9.9z"/><path d="m16.465 18.536 1.414-1.414c-1.17-1.17-1.17-3.073 0-4.243l-1.414-1.414c-1.949 1.949-1.949 5.121 0 7.071z"/><path d="m15.05 19.95c-2.729-2.729-2.729-7.17 0-9.899l-1.414-1.414c-3.509 3.509-3.509 9.219 0 12.728z"/></g></g></svg>