<?xml version="1.0"?>
<svg xmlns="http://www.w3.org/2000/svg" xmlns:xlink="http://www.w3.org/1999/xlink" xmlns:svgjs="http://svgjs.com/svgjs" version="1.1" width="512" height="512" x="0" y="0" viewBox="0 0 512 512" style="enable-background:new 0 0 512 512" xml:space="preserve" class=""><g><g xmlns="http://www.w3.org/2000/svg"><path id="SvgjsPath1017" d="m136 332h-90v-107h105v30h-75v47h60z" fill="#0b3172" data-original="#73b8e8" style="" class=""/><path id="SvgjsPath1016" d="m466 332h-90v-30h60v-47h-75v-30h105z" fill="#0068b4" data-original="#5595dc" style="" class=""/><path id="SvgjsPath1015" d="m353.973 185-97.973 10h-107.973l35.454-195h57.519l77.519 10z" fill="#31373a" data-original="#3d6c84" style="" class=""/><path id="SvgjsPath1014" d="m256 10v185h107.973l-35.454-195h-57.52z" fill="#31373a" data-original="#2e5167" style="" class=""/><path id="SvgjsPath1013" d="m429.905 502c-1.087.058 16.606-.879-188.905 10h-168.905l67.004-287h115.901l107.902 10z" fill="#31373a" data-original="#3d6c84" style="" class=""/><path id="SvgjsPath1012" d="m372.901 225h-116.901v277l14.999 10h168.906z" fill="#31373a" data-original="#2e5167" style="" class=""/><g fill="#f5f5f5"><path id="SvgjsPath1011" d="m241 0h30v75h-30z" fill="#ededed" data-original="#f5f5f5" style="" class=""/><path id="SvgjsPath1010" d="m241 120h30v60h-30z" fill="#ededed" data-original="#f5f5f5" style="" class=""/><path id="SvgjsPath1009" d="m241 240h30v62h-30z" fill="#ededed" data-original="#f5f5f5" style="" class=""/><path id="SvgjsPath1008" d="m241 332h30v75h-30z" fill="#ededed" data-original="#f5f5f5" style="" class=""/><path id="SvgjsPath1007" d="m241 437h30v75h-30z" fill="#ededed" data-original="#f5f5f5" style="" class=""/></g><path id="SvgjsPath1006" d="m256 0h15v75h-15z" fill="#e6e0cf" data-original="#efe6ca" style="" class=""/><path id="SvgjsPath1005" d="m256 120h15v60h-15z" fill="#e6e0cf" data-original="#efe6ca" style="" class=""/><path id="SvgjsPath1004" d="m256 240h15v62h-15z" fill="#e6e0cf" data-original="#efe6ca" style="" class=""/><path id="SvgjsPath1003" d="m256 332h15v75h-15z" fill="#e6e0cf" data-original="#efe6ca" style="" class=""/><path id="SvgjsPath1002" d="m256 437h15v75h-15z" fill="#e6e0cf" data-original="#efe6ca" style="" class=""/><path id="SvgjsPath1001" d="m502 245-246 10h-256v-90h256l246 10z" fill="#0068b4" data-original="#9dcced" style="" class=""/><path id="SvgjsPath1000" d="m256 165h256v90h-256z" fill="#0b3172" data-original="#73b8e8" style="" class=""/></g></g></svg>
