<?xml version="1.0"?>
<svg xmlns="http://www.w3.org/2000/svg" xmlns:xlink="http://www.w3.org/1999/xlink" xmlns:svgjs="http://svgjs.com/svgjs" version="1.1" width="512" height="512" x="0" y="0" viewBox="0 0 512 512" style="enable-background:new 0 0 512 512" xml:space="preserve" class=""><g><g xmlns="http://www.w3.org/2000/svg"><g><g><path clip-rule="evenodd" d="m487.109 398.433v113.567h-161.285c2.926 0-59.027-45.936-59.027-45.936l18.788-89.244h179.88c11.888 0 21.644 9.725 21.644 21.613z" fill="#d5edfd" fill-rule="evenodd" data-original="#f9f7f8" style="" class=""/></g><g><path clip-rule="evenodd" d="m422.542 265.213-128.018-62.054c-21.2 2.395-26.018 20.792-22.631 39.189-.029 0-.058 0-.058.029l117.769 79.868c15.681 9.053 35.918 3.621 44.999-12.06 9.051-15.682 3.62-35.919-12.061-44.972z" fill="#375e7d" fill-rule="evenodd" data-original="#375e7d" style="" class=""/></g><g fill="#b1e4f9"><path d="m174.389 51.817h-112.571c-4.267 0-7.726 3.459-7.726 7.726s3.459 7.726 7.726 7.726h112.571c4.267 0 7.726-3.459 7.726-7.726s-3.459-7.726-7.726-7.726z" fill="#b1e4f9" data-original="#b1e4f9" style="" class=""/><path d="m80.39 106.021c4.267 0 7.726-3.459 7.726-7.726s-3.459-7.726-7.726-7.726h-18.572c-4.267 0-7.726 3.459-7.726 7.726s3.459 7.726 7.726 7.726z" fill="#b1e4f9" data-original="#b1e4f9" style="" class=""/><path d="m161.511 90.568h-39.918c-4.267 0-7.726 3.459-7.726 7.726s3.459 7.726 7.726 7.726h39.918c4.267 0 7.726-3.459 7.726-7.726s-3.458-7.726-7.726-7.726z" fill="#b1e4f9" data-original="#b1e4f9" style="" class=""/><path d="m150.181 129.319h-88.363c-20.362 0-36.928 16.566-36.928 36.929s16.565 36.929 36.928 36.929h24.296c4.267 0 7.726-3.459 7.726-7.726s-3.459-7.726-7.726-7.726h-24.296c-11.841 0-21.475-9.634-21.475-21.476s9.634-21.476 21.475-21.476h88.363c4.267 0 7.726-3.459 7.726-7.726s-3.458-7.728-7.726-7.728z" fill="#b1e4f9" data-original="#b1e4f9" style="" class=""/></g><g><path clip-rule="evenodd" d="m294.29 462.094-7.213-70.699-32.063-8.643-31.012 8.643-7.212 70.699 34.516 19.185z" fill="#d5edfd" fill-rule="evenodd" data-original="#f9f7f8" style="" class=""/></g><g><path clip-rule="evenodd" d="m331.113 506.714v-19.653c0-13.725-11.213-24.968-24.938-24.968h-11.885-77.5-11.885c-13.695 0-24.938 11.243-24.938 24.968v19.653c0 2.891 2.365 5.286 5.285 5.286h140.575c2.92 0 5.286-2.395 5.286-5.286z" fill="#0068b4" fill-rule="evenodd" data-original="#4fc9af" style="" class=""/></g><g><path clip-rule="evenodd" d="m121.477 322.245 117.798-79.868c.759-14.718 3.767-36.444-22.719-39.218l-128.018 62.054c-15.681 9.053-21.083 29.29-12.031 44.971s29.289 21.114 44.97 12.061z" fill="#375e7d" fill-rule="evenodd" data-original="#375e7d" style="" class=""/></g><g><path clip-rule="evenodd" d="m282.814 349.782-10.98-107.405c-8.702-6.833-20.587-8.527-32.559 0l-11.009 107.405 27.274 20.821z" fill="#d5edfd" fill-rule="evenodd" data-original="#f9f7f8" style="" class=""/></g><g><path clip-rule="evenodd" d="m278.229 174.833 10.279-141.922c0-18.106-14.805-32.911-32.939-32.911-18.105 0-32.91 14.805-32.91 32.911l10.25 141.864c15.214 18.368 33.552 18.075 45.32.058z" fill="#375e7d" fill-rule="evenodd" data-original="#375e7d" style="" class=""/></g><g><path clip-rule="evenodd" d="m278.229 174.833 10.279-141.922c0-18.106-14.805-32.911-32.939-32.911-4.059 0-7.972.73-11.564 2.103 12.294 4.789 21.083 16.762 21.083 30.721l-9.753 134.768h.204c8.469-.001 16.295 2.685 22.69 7.241z" fill="#2b4d66" fill-rule="evenodd" data-original="#2b4d66" style="" class=""/></g><g><path clip-rule="evenodd" d="m389.603 297.511-101.591-68.888c-4.001 5.928-9.578 10.688-16.119 13.725-.029 0-.058 0-.058.029l117.769 79.868c15.681 9.053 35.918 3.621 44.999-12.06 5.227-9.082 5.607-19.711 1.957-28.793-.555 1.402-1.197 2.745-1.957 4.059-9.083 15.681-29.319 21.112-45 12.06z" fill="#2b4d66" fill-rule="evenodd" data-original="#2b4d66" style="" class=""/></g><g><path clip-rule="evenodd" d="m97.502 288.663 125.157-60.653c-3.971-6.132-6.278-13.433-6.278-21.259 0-1.226.058-2.424.175-3.592l-128.018 62.054c-15.681 9.053-21.083 29.29-12.031 44.971 1.285 2.249 2.833 4.322 4.555 6.132.321-11.067 6.191-21.725 16.44-27.653z" fill="#2b4d66" fill-rule="evenodd" data-original="#2b4d66" style="" class=""/></g><g><path clip-rule="evenodd" d="m287.077 391.395-4.263-41.613h-54.548l-4.264 41.613z" fill="#0068b4" fill-rule="evenodd" data-original="#4fc9af" style="" class=""/></g><g><path clip-rule="evenodd" d="m282.814 349.782-10.98-107.405c-4.964 2.249-10.483 3.533-16.294 3.533-1.606 0-3.183-.117-4.76-.292l10.658 104.164z" fill="#bce0f7" fill-rule="evenodd" data-original="#e5e4ec" style="" class=""/></g><g><path clip-rule="evenodd" d="m285.588 376.824-2.774-27.042h-21.376l1.548 15.127 2.103 20.558.613 5.928h21.375z" fill="#00518c" fill-rule="evenodd" data-original="#26bb9e" style="" class=""/></g><g><path clip-rule="evenodd" d="m294.29 462.094-7.213-70.699h-21.375l7.242 70.699z" fill="#bce0f7" fill-rule="evenodd" data-original="#e5e4ec" style="" class=""/></g><g><path clip-rule="evenodd" d="m331.113 506.714v-19.653c0-13.725-11.213-24.968-24.938-24.968h-11.885-9.49c2.482 0 4.877.38 7.154 1.051 10.25 3.095 17.784 12.674 17.784 23.917v19.653c0 2.891-2.365 5.286-5.256 5.286h21.346c2.919 0 5.285-2.395 5.285-5.286z" fill="#00518c" fill-rule="evenodd" data-original="#26bb9e" style="" class=""/></g><g><path clip-rule="evenodd" d="m487.106 398.433c0-11.885-9.753-21.61-21.638-21.61h-25.96c11.914 0 21.638 9.724 21.638 21.61v113.567h25.96c0-37.846 0-75.721 0-113.567z" fill="#bce0f7" fill-rule="evenodd" data-original="#e5e4ec" style="" class=""/></g><g><path d="m378.441 482.494c-1.514.001-3.042-.444-4.382-1.369-3.512-2.424-4.393-7.236-1.969-10.747l12.601-18.254h-5.601c-5.343 0-7.831-2.596-8.978-4.773-2.565-4.87.492-9.326 1.643-11.004l18.406-26.704c2.423-3.513 7.232-4.399 10.746-1.977s4.398 7.233 1.977 10.746l-12.584 18.259h5.581c5.363 0 7.857 2.598 9.005 4.778 2.565 4.87-.49 9.322-1.64 10.999l-18.439 26.709c-1.5 2.171-3.913 3.337-6.366 3.337z" fill="#ffd772" data-original="#ffd772" style="" class=""/></g><g><path d="m334.107 427.865c0 4.275-3.461 7.726-7.726 7.726h-34.789l-1.576-15.453h36.365c4.264.001 7.726 3.462 7.726 7.727z" fill="#375e7d" data-original="#375e7d" style="" class=""/></g><g><path d="m487.109 420.139v15.453h-34.666c-4.265 0-7.726-3.451-7.726-7.726 0-4.265 3.461-7.726 7.726-7.726h34.666z" fill="#375e7d" data-original="#375e7d" style="" class=""/></g><g><path d="m487.109 458.338v15.453h-34.666c-4.265 0-7.726-3.461-7.726-7.726s3.461-7.726 7.726-7.726h34.666z" fill="#375e7d" data-original="#375e7d" style="" class=""/></g><g fill="#b1e4f9"><path d="m449.349 100.818h-18.601c-4.267 0-7.726 3.459-7.726 7.726s3.459 7.726 7.726 7.726h18.601c4.267 0 7.726-3.459 7.726-7.726s-3.459-7.726-7.726-7.726z" fill="#b1e4f9" data-original="#b1e4f9" style="" class=""/><path d="m397.271 108.544c0-4.267-3.459-7.726-7.726-7.726h-39.919c-4.267 0-7.726 3.459-7.726 7.726s3.459 7.726 7.726 7.726h39.919c4.267.001 7.726-3.459 7.726-7.726z" fill="#b1e4f9" data-original="#b1e4f9" style="" class=""/><path d="m449.349 139.569h-88.392c-4.267 0-7.726 3.459-7.726 7.726s3.459 7.726 7.726 7.726h88.392c4.267 0 7.726-3.459 7.726-7.726s-3.459-7.726-7.726-7.726z" fill="#b1e4f9" data-original="#b1e4f9" style="" class=""/><path d="m449.498 3.662h-24.296c-4.267 0-7.726 3.459-7.726 7.726s3.459 7.726 7.726 7.726h24.296c11.841 0 21.475 9.634 21.475 21.476s-9.634 21.475-21.475 21.475c-.05.005-112.75 0-112.75 0-4.267 0-7.726 3.459-7.726 7.726s3.459 7.726 7.726 7.726c0 0 112.7-.005 112.75 0 20.362 0 36.928-16.566 36.928-36.928 0-20.361-16.565-36.927-36.928-36.927z" fill="#b1e4f9" data-original="#b1e4f9" style="" class=""/></g></g><g><path clip-rule="evenodd" d="m294.699 206.751c0-1.226-.058-2.424-.175-3.592-1.051-11.681-7.242-21.872-16.294-28.326-6.395-4.556-14.221-7.242-22.689-7.242-8.439 0-16.236 2.657-22.631 7.184-9.082 6.454-15.301 16.674-16.353 28.384-.117 1.168-.175 2.365-.175 3.592 0 15.798 9.374 29.436 22.894 35.627 4.935 2.249 10.454 3.533 16.265 3.533s11.33-1.285 16.294-3.533l.058-.029c13.461-6.221 22.806-19.829 22.806-35.598z" fill="#ffd772" fill-rule="evenodd" data-original="#ffd772" style="" class=""/></g><g><path clip-rule="evenodd" d="m294.699 206.751c0-1.226-.058-2.424-.175-3.592-1.051-11.681-7.242-21.872-16.294-28.326-6.395-4.556-14.221-7.242-22.689-7.242-6.366 0-12.411 1.519-17.725 4.234 2.716 1.139 5.285 2.57 7.651 4.234 9.052 6.454 15.243 16.645 16.294 28.326.117 1.197.175 2.395.175 3.592 0 15.243-8.702 28.472-21.434 34.926 4.643 1.927 9.724 3.008 15.039 3.008 5.811 0 11.33-1.285 16.294-3.533l.058-.029c13.461-6.221 22.806-19.829 22.806-35.598z" fill="#fbba58" fill-rule="evenodd" data-original="#fbba58" style="" class=""/></g><g><path d="m255.576 214.507c-2.497 0-4.947-1.208-6.436-3.442l-.058-.088c-2.367-3.55-1.408-8.348 2.143-10.714 3.549-2.367 8.347-1.407 10.714 2.143l.058.088c2.367 3.55 1.408 8.348-2.143 10.714-1.316.879-2.805 1.299-4.278 1.299z" fill="#375e7d" data-original="#375e7d" style="" class=""/></g></g></g></svg>
