<?xml version="1.0"?>
<svg xmlns="http://www.w3.org/2000/svg" xmlns:xlink="http://www.w3.org/1999/xlink" xmlns:svgjs="http://svgjs.com/svgjs" version="1.1" width="512" height="512" x="0" y="0" viewBox="0 0 512 512" style="enable-background:new 0 0 512 512" xml:space="preserve" class=""><g transform="matrix(1,0,0,1,0,0)"><g xmlns="http://www.w3.org/2000/svg"><path d="m158.5 177.017h195v65.077h-195z" fill="#e2dee2" data-original="#e2dee2" style="" class=""/><path d="m374.608 249.203v40.297h-237.216v-40.297l118.608-37.673z" fill="#b5adb6" data-original="#b5adb6" style="" class=""/><path d="m324 57.5h-68v-50h68c5.523 0 10 4.477 10 10v30c0 5.523-4.477 10-10 10z" fill="#fe646f" data-original="#fe646f" style="" class=""/><path d="m324 7.5h-10c0 22.091-17.909 40-40 40h-18v10h68c5.523 0 10-4.477 10-10v-30c0-5.523-4.477-10-10-10z" fill="#fd4755" data-original="#fd4755" style="" class=""/><g><path d="m256 90.648c-4.142 0-7.5-3.357-7.5-7.5v-75.648c0-4.143 3.358-7.5 7.5-7.5s7.5 3.357 7.5 7.5v75.648c0 4.143-3.358 7.5-7.5 7.5z" fill="#013a64" data-original="#a79ba7" style="" class=""/></g><path d="m22.5 289.5h467v215h-467z" fill="#b5adb6" data-original="#b5adb6" style="" class=""/><path d="m376.78 363.893c-4.142 0-7.5 3.357-7.5 7.5s3.358 7.5 7.5 7.5h112.72v-15z" fill="#013a64" data-original="#a79ba7" style="" class=""/><path d="m135.22 363.893c4.142 0 7.5 3.357 7.5 7.5s-3.358 7.5-7.5 7.5h-112.72v-15z" fill="#013a64" data-original="#a79ba7" style="" class=""/><g><path d="m389.608 261.758c-.794 0-1.601-.127-2.395-.395l-120.84-40.7c-6.688-2.251-14.057-2.252-20.747 0l-120.84 40.7c-3.925 1.321-8.179-.788-9.502-4.714-1.322-3.925.789-8.179 4.714-9.501l120.84-40.7c9.778-3.293 20.546-3.294 30.323 0l120.84 40.7c3.925 1.322 6.036 5.576 4.714 9.501-1.055 3.132-3.976 5.109-7.107 5.109z" fill="#013a64" data-original="#a79ba7" style="" class=""/></g><path d="m386.303 327.5h-260.606c-8.284 0-15-6.716-15-15v-23h290.606v23c0 8.284-6.716 15-15 15z" fill="#013a64" data-original="#a79ba7" style="" class=""/><g fill="#e2dee2"><path d="m135.22 327.5h46.56v177h-46.56z" fill="#e2dee2" data-original="#e2dee2" style="" class=""/><path d="m330.22 327.5h46.56v177h-46.56z" fill="#e2dee2" data-original="#e2dee2" style="" class=""/><path d="m230.547 327.5h46.56v177h-46.56z" fill="#e2dee2" data-original="#e2dee2" style="" class=""/></g><path d="m459.5 504.5h-52.72v-77.725c0-14.558 11.802-26.36 26.36-26.36 14.558 0 26.36 11.802 26.36 26.36z" fill="#e2dee2" data-original="#e2dee2" style="" class=""/><g><path d="m406.78 452h52.72v15h-52.72z" fill="#013a64" data-original="#a79ba7" style="" class=""/></g><path d="m105.22 504.5h-52.72v-77.725c0-14.558 11.802-26.36 26.36-26.36 14.558 0 26.36 11.802 26.36 26.36z" fill="#e2dee2" data-original="#e2dee2" style="" class=""/><g><path d="m52.5 452h52.72v15h-52.72z" fill="#013a64" data-original="#a79ba7" style="" class=""/></g><path d="m353.5 177.017h-195c0-51.842 42.026-93.869 93.869-93.869h7.263c51.842.001 93.868 42.027 93.868 93.869z" fill="#b5adb6" data-original="#b5adb6" style="" class=""/><g><path d="m143.5 177.017h225" fill="#b5adb6" data-original="#b5adb6" style="" class=""/><path d="m368.5 184.518h-225c-4.142 0-7.5-3.357-7.5-7.5s3.358-7.5 7.5-7.5h225c4.142 0 7.5 3.357 7.5 7.5s-3.358 7.5-7.5 7.5z" fill="#013a64" data-original="#a79ba7" style="" class=""/></g><g><path d="m504.5 512h-497c-4.142 0-7.5-3.357-7.5-7.5s3.358-7.5 7.5-7.5h497c4.142 0 7.5 3.357 7.5 7.5s-3.358 7.5-7.5 7.5z" fill="#013a64" data-original="#a79ba7" style="" class=""/></g><g><path d="m504.5 297h-497c-4.142 0-7.5-3.357-7.5-7.5s3.358-7.5 7.5-7.5h497c4.142 0 7.5 3.357 7.5 7.5s-3.358 7.5-7.5 7.5z" fill="#013a64" data-original="#cbc4cc" style="" class=""/></g></g></g></svg>
