<?xml version="1.0"?>
<svg xmlns="http://www.w3.org/2000/svg" xmlns:xlink="http://www.w3.org/1999/xlink" xmlns:svgjs="http://svgjs.com/svgjs" version="1.1" width="512" height="512" x="0" y="0" viewBox="0 0 512 512" style="enable-background:new 0 0 512 512" xml:space="preserve" class=""><g><g xmlns="http://www.w3.org/2000/svg" id="flat"><path d="m456 384 32 8v32h-120v-40z" fill="#0068b4" data-original="#0198cb" style="" class=""/><circle cx="456" cy="424" fill="#b9b9b9" r="16" data-original="#b9b9b9" style="" class=""/><path d="m32 104h80a8 8 0 0 1 8 8v88a0 0 0 0 1 0 0h-96a0 0 0 0 1 0 0v-88a8 8 0 0 1 8-8z" fill="#dbdbdb" data-original="#dbdbdb" style="" class=""/><circle cx="72" cy="152" fill="#0068b4" r="24" data-original="#01afea" style="" class=""/><path d="m250.882 219.482-61.782-51.482h-69.1v-16h72a8 8 0 0 1 5.122 1.854l64 53.336z" fill="#89d9ff" data-original="#c1e3f7" style="" class=""/><path d="m314.854 229.65-14.707-6.3 28.5-66.5a8 8 0 0 1 7.353-4.85h40v16h-34.725z" fill="#89d9ff" data-original="#c1e3f7" style="" class=""/><path d="m95.543 349.943-12.8-9.6 30.857-41.143a8 8 0 0 1 6.4-3.2h33v16h-29z" fill="#89d9ff" data-original="#c1e3f7" style="" class=""/><path d="m320 240a48 48 0 0 0 -91.038-21.256 32 32 0 0 0 -44.076 21.784 48.008 48.008 0 0 0 -40.886 47.472 48 48 0 0 0 48 48h128a48 48 0 0 0 48-48 48 48 0 0 0 -48-48z" fill="#0068b4" data-original="#01afea" style="" class=""/><rect fill="#ebebeb" height="176" rx="14" width="96" x="208" y="304" data-original="#ebebeb" style="" class=""/><path d="m208 336h96v112h-96z" fill="#d5edfd" data-original="#04957c" style="" class=""/><g fill="#2ad3b3"><path d="m278.627 385.373a32 32 0 0 0 -45.254 0l-11.314-11.314a48 48 0 0 1 67.882 0z" fill="#eb5c40" data-original="#2ad3b3" style="" class=""/><path d="m261.656 402.343a8 8 0 0 0 -11.312 0l-11.315-11.313a24 24 0 0 1 33.942 0z" fill="#eb5c40" data-original="#2ad3b3" style="" class=""/><path d="m397.657 321.373-11.314-11.314a48 48 0 0 1 67.883 0l-11.315 11.314a32 32 0 0 0 -45.254 0z" fill="#eb5c40" data-original="#2ad3b3" style="" class=""/><path d="m425.941 338.343a8 8 0 0 0 -11.313 0l-11.315-11.313a24 24 0 0 1 33.942 0z" fill="#eb5c40" data-original="#2ad3b3" style="" class=""/><circle cx="256" cy="416" r="8" fill="#eb5c40" data-original="#2ad3b3" style="" class=""/></g><path d="m190 32h132a6 6 0 0 1 6 6v50a0 0 0 0 1 0 0h-144a0 0 0 0 1 0 0v-50a6 6 0 0 1 6-6z" fill="#dbdbdb" data-original="#dbdbdb" style="" class=""/><path d="m216 64h80v24h-80z" fill="#fbfbf9" data-original="#fbfbf9" style="" class=""/><path d="m416 208h32l8 24h-48z" fill="#cbcbcb" data-original="#cbcbcb" style="" class=""/><path d="m450.67 216h-37.34l2.67-8h32z" fill="#cbcbcb" data-original="#cbcbcb" style="" class=""/><path d="m488 176h-112v24a8 8 0 0 0 8 8h96a8 8 0 0 0 8-8z" fill="#dbdbdb" data-original="#dbdbdb" style="" class=""/><path d="m72 184a32 32 0 1 1 32-32 32.036 32.036 0 0 1 -32 32zm0-48a16 16 0 1 0 16 16 16.019 16.019 0 0 0 -16-16z" fill="#fbfbf9" data-original="#fbfbf9" style="" class=""/><path d="m24 200h96v32h-96z" fill="#cbcbcb" data-original="#cbcbcb" style="" class=""/><path d="m32 360h96v72h-96z" fill="#dbdbdb" data-original="#dbdbdb" style="" class=""/><path d="m80 328-56 32h112z" fill="#0068b4" data-original="#0198cb" style="" class=""/><path d="m64 392h32v40h-32z" fill="#0068b4" data-original="#0198cb" style="" class=""/><path d="m368 384 16-24h56l16 24z" fill="#89d9ff" data-original="#c1e3f7" style="" class=""/><circle cx="400" cy="424" fill="#b9b9b9" r="16" data-original="#b9b9b9" style="" class=""/><circle cx="400" cy="424" fill="#dbdbdb" r="8" data-original="#dbdbdb" style="" class=""/><circle cx="456" cy="424" fill="#dbdbdb" r="8" data-original="#dbdbdb" style="" class=""/><path d="m280 240h-16v-67.719l-44.438-29.625a8 8 0 0 1 -3.562-6.656v-24h16v19.719l44.437 29.625a8 8 0 0 1 3.563 6.656z" fill="#89d9ff" data-original="#c1e3f7" style="" class=""/><circle cx="272" cy="256" fill="#89d9ff" r="24" data-original="#c1e3f7" style="" class=""/><path d="m184 264h16v16h-16z" fill="#ffc40e" data-original="#bce1ff" style="" class=""/><path d="m216 264h16v16h-16z" fill="#ffc40e" data-original="#bce1ff" style="" class=""/><path d="m312 264h16v16h-16z" fill="#ffc40e" data-original="#bce1ff" style="" class=""/><path d="m24 200h96v8h-96z" fill="#b9b9b9" data-original="#b9b9b9" style="" class=""/><path d="m216 80h80v8h-80z" fill="#0068b4" data-original="#01afea" style="" class=""/><path d="m32 360h96v8h-96z" fill="#c3c3c3" data-original="#c3c3c3" style="" class=""/><path d="m450.67 216h-37.34l2.67-8h32z" fill="#b9b9b9" data-original="#b9b9b9" style="" class=""/><path d="m384 128h96a8 8 0 0 1 8 8v48a0 0 0 0 1 0 0h-112a0 0 0 0 1 0 0v-48a8 8 0 0 1 8-8z" fill="#d5edfd" data-original="#04957c" style="" class=""/><path d="m400 360h16v24h-16z" fill="#0068b4" data-original="#0198cb" style="" class=""/><path d="m296 336h8v112h-8z" fill="#d5edfd" data-original="#27c5a7" style="" class=""/></g></g></svg>
